# 3ds Max Wavefront OBJ Exporter v0.97b - (c)2007 guruware
# File Created: 14.12.2011 14:26:07

mtllib AntiAirTank2.mtl

#
# object Box20
#

v  0.3333 0.0010 -5.3333
v  0.3333 0.0010 -4.6667
v  -0.3333 0.0010 -4.6667
v  -0.3333 0.0010 -5.3333
v  -0.5204 0.8469 -5.5602
v  -0.5204 1.5348 -5.0720
v  0.5204 1.5348 -5.0720
v  0.5204 0.8469 -5.5602
v  0.3333 0.0048 -3.9940
v  0.3333 0.2808 -4.0000
v  -0.3333 0.2808 -4.0000
v  -0.3333 0.0048 -3.9940
v  1.5317 0.0046 -5.3326
v  1.5317 0.6669 -5.9993
v  1.5317 0.6669 -3.9993
v  1.5317 0.0046 -4.6659
v  -0.3333 0.0010 -6.0000
v  -0.3333 0.2808 -6.0000
v  0.3333 0.2808 -6.0000
v  0.3333 0.0010 -6.0000
v  -1.5057 0.0010 -4.6667
v  -1.5057 0.6633 -4.0000
v  -1.5057 0.6633 -6.0000
v  -1.5057 0.0010 -5.3333
v  0.5204 1.0010 -4.9394
v  -0.5204 1.0010 -4.9394
v  1.0000 0.0010 -5.3333
v  1.0000 0.0010 -6.0000
v  1.0000 0.6633 -6.0000
v  1.0000 0.6633 -4.0000
v  1.0000 0.0010 -4.0000
v  1.0000 0.0010 -4.6667
v  -1.0000 0.0010 -4.6667
v  -1.0000 0.0010 -4.0000
v  -1.0000 0.6633 -4.0000
v  -1.0000 0.6633 -6.0000
v  -1.0000 0.0010 -6.0000
v  -1.0000 0.0010 -5.3333
v  -0.0989 1.8455 -4.3806
v  -0.1351 1.7836 -4.3188
v  -0.1351 1.0765 -5.0259
v  -0.0989 1.1384 -5.0877
v  -0.2226 1.7580 -4.2931
v  -0.2226 1.0509 -5.0002
v  -0.3101 1.7836 -4.3188
v  -0.3101 1.0765 -5.0259
v  -0.3464 1.8455 -4.3806
v  -0.3464 1.1384 -5.0877
v  -0.3101 1.9074 -4.4425
v  -0.3101 1.2003 -5.1496
v  -0.2226 1.9330 -4.4681
v  -0.2226 1.2259 -5.1752
v  -0.1351 1.9074 -4.4425
v  -0.1351 1.2003 -5.1496
v  0.3597 1.8402 -4.3806
v  0.3234 1.7784 -4.3188
v  0.3234 1.0713 -5.0259
v  0.3597 1.1331 -5.0877
v  0.2359 1.7527 -4.2931
v  0.2359 1.0456 -5.0002
v  0.1484 1.7784 -4.3188
v  0.1484 1.0713 -5.0259
v  0.1122 1.8402 -4.3806
v  0.1122 1.1331 -5.0877
v  0.1484 1.9021 -4.4425
v  0.1484 1.1950 -5.1496
v  0.2359 1.9277 -4.4681
v  0.2359 1.2206 -5.1752
v  0.3234 1.9021 -4.4425
v  0.3234 1.1950 -5.1496
# 70 vertices

vn 0.0000 -1.0000 -0.0000
vn -0.0000 -1.0000 0.0028
vn 0.0007 -1.0000 0.0021
vn 0.0124 0.7901 -0.6129
vn 0.0000 0.5788 -0.8155
vn 0.1123 0.8177 -0.5646
vn 0.0046 0.0218 0.9998
vn 0.0029 0.0163 0.9999
vn 0.0071 0.0218 0.9997
vn 0.0009 0.0164 0.9999
vn 1.0000 0.0000 -0.0000
vn 0.0000 0.0000 -1.0000
vn -1.0000 0.0000 -0.0000
vn 0.0028 -1.0000 0.0056
vn -0.0014 -1.0000 0.0042
vn 0.1265 0.6343 -0.7627
vn -0.1265 0.6343 -0.7627
vn -0.1748 0.7979 0.5769
vn 0.4252 0.8768 0.2246
vn -0.2412 0.9311 0.2736
vn 0.1748 0.7979 0.5769
vn -0.0014 -1.0000 0.0014
vn 0.0275 0.8759 -0.4816
vn 0.1599 0.9002 0.4052
vn -0.1673 0.9089 0.3821
vn -0.0522 0.9001 -0.4326
vn 0.0023 0.0055 1.0000
vn 0.0000 0.0000 1.0000
vn -0.0037 0.0054 1.0000
vn -0.0090 0.0000 1.0000
vn 0.0028 -1.0000 0.0028
vn -0.0056 -1.0000 -0.0000
vn 0.0068 -1.0000 0.0000
vn 0.0058 -0.7094 -0.7048
vn -0.0068 1.0000 -0.0000
vn 0.0039 -0.7094 0.7048
vn 0.0000 -0.7094 0.7048
vn 0.0000 1.0000 -0.0000
vn 0.0000 -0.7094 -0.7048
vn 0.7071 -0.5000 0.5000
vn 0.0000 -0.7071 0.7071
vn -0.0000 -0.7071 0.7071
vn -0.7071 -0.5000 0.5000
vn -1.0000 -0.0000 0.0000
vn -1.0000 0.0000 0.0000
vn -0.7071 0.5000 -0.5000
vn 0.0000 0.7071 -0.7071
vn 0.7071 0.5000 -0.5000
vn -0.0000 0.7071 0.7071
vn 0.0000 0.7071 0.7071
vn 0.0000 0.2410 0.9705
vn 1.0000 -0.0000 -0.0000
# 52 vertex normals

vt 0.1996 0.2219 0.0000
vt 0.1996 0.1164 0.0000
vt 0.3051 0.1164 0.0000
vt 0.3051 0.2219 0.0000
vt 0.5903 0.1188 0.0000
vt 0.5903 0.0100 0.0000
vt 0.7550 0.0100 0.0000
vt 0.7550 0.1188 0.0000
vt 0.6199 0.5841 0.0000
vt 0.6199 0.5404 0.0000
vt 0.7254 0.5404 0.0000
vt 0.7254 0.5841 0.0000
vt 0.6199 0.4560 0.0000
vt 0.5144 0.3512 0.0000
vt 0.8308 0.3512 0.0000
vt 0.7254 0.4560 0.0000
vt 0.6199 0.2527 0.0000
vt 0.6199 0.2084 0.0000
vt 0.7254 0.2084 0.0000
vt 0.7254 0.2527 0.0000
vt 0.1155 0.9374 0.0000
vt 0.0100 0.8326 0.0000
vt 0.3264 0.8326 0.0000
vt 0.2209 0.9374 0.0000
vt 0.1996 0.3274 0.0000
vt 0.3051 0.3274 0.0000
vt 0.3051 0.0100 0.0000
vt 0.1996 0.0100 0.0000
vt 0.1996 0.6677 0.0000
vt 0.1700 0.5190 0.0000
vt 0.3347 0.5190 0.0000
vt 0.3051 0.6677 0.0000
vt 0.4332 0.7964 0.0000
vt 0.3278 0.7964 0.0000
vt 0.3278 0.6916 0.0000
vt 0.9602 0.3512 0.0000
vt 0.9602 0.4560 0.0000
vt 0.8547 0.4560 0.0000
vt 0.9602 0.1148 0.0000
vt 0.8547 0.1148 0.0000
vt 0.8547 0.0100 0.0000
vt 0.4558 0.8326 0.0000
vt 0.4558 0.9374 0.0000
vt 0.3503 0.9374 0.0000
vt 0.0941 0.2219 0.0000
vt 0.0941 0.1164 0.0000
vt 0.4105 0.1164 0.0000
vt 0.4105 0.2219 0.0000
vt 0.4105 0.3512 0.0000
vt 0.4105 0.6677 0.0000
vt 0.3347 0.4208 0.0000
vt 0.0941 0.6677 0.0000
vt 0.0941 0.3512 0.0000
vt 0.1700 0.4208 0.0000
vt 0.5144 0.5847 0.0000
vt 0.5144 0.4799 0.0000
vt 0.8308 0.4799 0.0000
vt 0.8308 0.5847 0.0000
vt 0.5144 0.2527 0.0000
vt 0.5144 0.1479 0.0000
vt 0.8308 0.1479 0.0000
vt 0.8308 0.2527 0.0000
vt 0.0941 0.3274 0.0000
vt 0.4105 0.3274 0.0000
vt 0.4105 0.0110 0.0000
vt 0.0941 0.0110 0.0000
vt 0.1219 0.8054 0.0000
vt 0.0100 0.7579 0.0000
vt 0.0939 0.6916 0.0000
vt 0.2469 0.6968 0.0000
vt 0.3039 0.7679 0.0000
vt 0.2199 0.8088 0.0000
vt 0.0100 0.2218 0.0000
vt 0.0100 0.1163 0.0000
vt 0.0100 0.3273 0.0000
vt 0.0100 0.6678 0.0000
vt 0.0100 0.3513 0.0000
vt 0.0100 0.0108 0.0000
vt 0.4906 0.1164 0.0000
vt 0.4906 0.2219 0.0000
vt 0.4906 0.0110 0.0000
vt 0.4906 0.3512 0.0000
vt 0.4906 0.6677 0.0000
vt 0.4906 0.3274 0.0000
vt 0.6802 0.7456 0.0000
vt 0.6799 0.7306 0.0000
vt 0.8381 0.7274 0.0000
vt 0.8384 0.7424 0.0000
vt 0.6797 0.7200 0.0000
vt 0.8379 0.7168 0.0000
vt 0.0105 0.9900 0.0000
vt 0.0102 0.9750 0.0000
vt 0.1684 0.9719 0.0000
vt 0.1687 0.9868 0.0000
vt 0.0100 0.9644 0.0000
vt 0.1682 0.9613 0.0000
vt 0.7052 0.8853 0.0000
vt 0.7049 0.8703 0.0000
vt 0.8631 0.8676 0.0000
vt 0.8634 0.8826 0.0000
vt 0.5149 0.8437 0.0000
vt 0.5146 0.8287 0.0000
vt 0.6728 0.8256 0.0000
vt 0.6731 0.8406 0.0000
vt 0.5144 0.8181 0.0000
vt 0.6726 0.8150 0.0000
vt 0.7033 0.6793 0.0000
vt 0.7030 0.6643 0.0000
vt 0.8611 0.6611 0.0000
vt 0.8614 0.6761 0.0000
vt 0.1995 0.8063 0.0000
vt 0.1845 0.8061 0.0000
vt 0.1740 0.7954 0.0000
vt 0.2103 0.7808 0.0000
vt 0.1742 0.7804 0.0000
vt 0.1849 0.7699 0.0000
vt 0.1998 0.7701 0.0000
vt 0.2102 0.7958 0.0000
vt 0.5149 0.8963 0.0000
vt 0.5146 0.8813 0.0000
vt 0.6728 0.8782 0.0000
vt 0.6731 0.8932 0.0000
vt 0.5144 0.8707 0.0000
vt 0.6726 0.8676 0.0000
vt 0.5149 0.3053 0.0000
vt 0.5146 0.2903 0.0000
vt 0.6728 0.2871 0.0000
vt 0.6731 0.3021 0.0000
vt 0.5144 0.2797 0.0000
vt 0.6726 0.2765 0.0000
vt 0.5147 0.9459 0.0000
vt 0.5144 0.9309 0.0000
vt 0.6726 0.9281 0.0000
vt 0.6729 0.9431 0.0000
vt 0.7035 0.6373 0.0000
vt 0.7032 0.6223 0.0000
vt 0.8613 0.6191 0.0000
vt 0.8616 0.6341 0.0000
vt 0.7030 0.6117 0.0000
vt 0.8611 0.6085 0.0000
vt 0.6973 0.8331 0.0000
vt 0.6970 0.8181 0.0000
vt 0.8551 0.8150 0.0000
vt 0.8554 0.8300 0.0000
vt 0.5702 0.1399 0.0000
vt 0.5552 0.1397 0.0000
vt 0.5447 0.1290 0.0000
vt 0.5811 0.1144 0.0000
vt 0.5449 0.1141 0.0000
vt 0.5556 0.1036 0.0000
vt 0.5706 0.1037 0.0000
vt 0.5809 0.1294 0.0000
vt 0.9559 0.5683 0.0000
vt 0.8547 0.5669 0.0000
vt 0.8559 0.4799 0.0000
vt 0.6791 0.6930 0.0000
vt 0.5144 0.6930 0.0000
vt 0.5144 0.6085 0.0000
vt 0.6791 0.6085 0.0000
vt 0.5908 0.7832 0.0000
vt 0.5144 0.7168 0.0000
vt 0.6479 0.7175 0.0000
# 162 texture coords

g Box20
usemtl Material__20
s 2
f 1/1/1 2/2/2 3/3/3 4/4/1 
s 4
f 5/5/4 6/6/5 7/7/5 8/8/6 
s 8
f 9/9/7 10/10/8 11/11/9 12/12/10 
s 16
f 13/13/11 14/14/11 15/15/11 16/16/11 
s 32
f 17/17/12 18/18/12 19/19/12 20/20/12 
s 64
f 21/21/13 22/22/13 23/23/13 24/24/13 
s 2
f 20/25/1 1/1/1 4/4/1 17/26/1 
f 12/27/14 3/3/3 2/2/2 9/28/15 
s 4
f 18/18/16 5/5/4 8/8/6 19/19/17 
f 10/29/18 25/30/19 26/31/20 11/32/21 
s 16
f 27/33/11 28/34/11 29/35/11 
f 30/36/11 31/37/11 32/38/11 
s 64
f 33/39/13 34/40/13 35/41/13 
f 36/42/13 37/43/13 38/44/13 
s 2
f 27/45/1 32/46/22 2/2/2 1/1/1 
f 33/47/1 38/48/1 4/4/1 3/3/3 
s 4
f 36/49/23 35/50/24 26/31/20 5/51/4 
f 30/52/25 29/53/26 8/54/6 25/30/19 
s 8
f 31/55/27 30/56/28 10/10/8 9/9/7 
f 35/57/29 34/58/30 12/12/10 11/11/9 
s 32
f 37/59/12 36/60/12 18/18/12 17/17/12 
f 29/61/12 28/62/12 20/20/12 19/19/12 
s 2
f 28/63/1 27/45/1 1/1/1 20/25/1 
f 38/48/1 37/64/1 17/26/1 4/4/1 
f 34/65/31 33/47/1 3/3/3 12/27/14 
f 32/46/22 31/66/32 9/28/15 2/2/2 
s 4
f 18/67/16 36/68/23 5/69/4 
f 8/70/6 29/71/26 19/72/17 
f 10/29/18 30/52/25 25/30/19 
f 26/31/20 35/50/24 11/32/21 
s off
f 32/46/33 27/45/33 13/73/33 16/74/33 
f 27/45/34 29/63/34 14/75/34 13/73/34 
f 29/53/35 30/52/35 15/76/35 14/77/35 
f 30/66/36 32/46/36 16/74/36 15/78/36 
f 38/48/1 33/47/1 21/79/1 24/80/1 
f 33/47/37 35/65/37 22/81/37 21/79/37 
f 35/50/38 36/49/38 23/82/38 22/83/38 
f 36/64/39 38/48/39 24/80/39 23/84/39 
s 8
f 39/85/11 40/86/40 41/87/40 42/88/11 
f 40/86/40 43/89/41 44/90/42 41/87/40 
f 43/91/41 45/92/43 46/93/43 44/94/42 
f 45/92/43 47/95/44 48/96/45 46/93/43 
f 47/97/44 49/98/46 50/99/46 48/100/45 
f 49/101/46 51/102/47 52/103/47 50/104/46 
f 51/102/47 53/105/48 54/106/48 52/103/47 
f 53/107/48 39/108/11 42/109/11 54/110/48 
s 1
f 51/111/49 49/112/50 47/113/49 39/114/49 
f 47/113/49 45/115/50 43/116/49 39/114/49 
f 43/116/49 40/117/49 39/114/49 
f 53/118/49 51/111/49 39/114/49 
s 8
f 55/119/11 56/120/40 57/121/40 58/122/11 
f 56/120/40 59/123/41 60/124/42 57/121/40 
f 59/125/41 61/126/43 62/127/43 60/128/42 
f 61/126/43 63/129/44 64/130/45 62/127/43 
f 63/131/44 65/132/46 66/133/46 64/134/45 
f 65/135/46 67/136/47 68/137/47 66/138/46 
f 67/136/47 69/139/48 70/140/48 68/137/47 
f 69/141/48 55/142/11 58/143/11 70/144/48 
s 1
f 67/145/49 65/146/50 63/147/49 55/148/49 
f 63/147/49 61/149/50 59/150/49 55/148/49 
f 59/150/49 56/151/49 55/148/49 
f 69/152/49 67/145/49 55/148/49 
s off
f 5/153/45 26/154/45 6/155/45 
f 26/156/51 25/157/51 7/158/51 6/159/51 
f 25/160/52 8/161/52 7/162/52 
# 51 polygons - 14 triangles

