# 3ds Max Wavefront OBJ Exporter v0.97b - (c)2007 guruware
# File Created: 14.12.2011 14:28:21

mtllib AntiAirTurret1.mtl

#
# object Box10
#

v  15.5146 1.1969 0.7391
v  14.4759 1.1969 0.7391
v  14.4759 0.0952 -0.3626
v  15.5146 0.0952 -0.3626
v  15.5146 1.9313 0.0047
v  15.5146 0.8296 -1.0970
v  14.4759 0.8296 -1.0970
v  14.4759 1.9313 0.0047
v  15.4947 0.0008 -0.0087
v  15.3482 0.0008 -0.3622
v  15.3482 1.0008 -0.3622
v  15.4947 1.0008 -0.0087
v  14.9947 0.0008 -0.5087
v  14.9947 1.0008 -0.5087
v  14.6411 0.0008 -0.3622
v  14.6411 1.0008 -0.3622
v  14.4947 0.0008 -0.0087
v  14.4947 1.0008 -0.0087
v  14.6411 0.0008 0.3449
v  14.6411 1.0008 0.3449
v  14.9947 0.0008 0.4913
v  14.9947 1.0008 0.4913
v  15.3482 0.0008 0.3449
v  15.3482 1.0008 0.3449
v  15.1068 1.7031 0.4541
v  15.0706 1.6412 0.5160
v  15.0706 0.9341 -0.1912
v  15.1068 0.9960 -0.2530
v  14.9830 1.6156 0.5416
v  14.9830 0.9085 -0.1655
v  14.8955 1.6412 0.5160
v  14.8955 0.9341 -0.1912
v  14.8593 1.7031 0.4541
v  14.8593 0.9960 -0.2530
v  14.8955 1.7649 0.3922
v  14.8955 1.0578 -0.3149
v  14.9830 1.7906 0.3666
v  14.9830 1.0835 -0.3405
v  15.0706 1.7649 0.3922
v  15.0706 1.0578 -0.3149
# 40 vertices

vn -0.0000 -0.7071 0.7071
vn 0.0000 -0.7071 0.7071
vn -0.0000 0.7071 -0.7071
vn 1.0000 0.0000 0.0000
vn -0.0000 -0.7071 -0.7071
vn 0.0000 -0.7071 -0.7071
vn -1.0000 0.0000 0.0000
vn -1.0000 -0.0000 0.0000
vn -1.0000 0.0000 -0.0000
vn 0.0000 0.7071 0.7071
vn 1.0000 -0.0000 0.0000
vn 0.7071 0.0000 -0.7071
vn -0.0000 0.0000 -1.0000
vn -0.7071 0.0000 -0.7071
vn -0.7071 0.0000 0.7071
vn 0.0000 0.0000 1.0000
vn 0.7071 -0.0000 0.7071
vn 0.7071 0.0000 0.7071
vn 0.0000 -1.0000 0.0000
vn -0.0000 -1.0000 0.0000
vn -0.0000 -1.0000 -0.0000
vn 0.0000 -1.0000 -0.0000
vn 0.7071 -0.5000 0.5000
vn 1.0000 0.0000 -0.0000
vn -0.7071 -0.5000 0.5000
vn -0.7071 0.5000 -0.5000
vn 0.0000 0.7071 -0.7071
vn 0.7071 0.5000 -0.5000
vn -0.0000 0.7071 0.7071
# 29 vertex normals

vt 0.3482 0.5088 0.0000
vt 0.3482 0.7343 0.0000
vt 0.0100 0.7343 0.0000
vt 0.0100 0.5088 0.0000
vt 0.7103 0.2355 0.0000
vt 0.3721 0.2355 0.0000
vt 0.3721 0.0100 0.0000
vt 0.7103 0.0100 0.0000
vt 0.3482 0.2355 0.0000
vt 0.0100 0.2355 0.0000
vt 0.0100 0.0100 0.0000
vt 0.3482 0.0100 0.0000
vt 0.3721 0.7343 0.0000
vt 0.3721 0.5088 0.0000
vt 0.5976 0.5088 0.0000
vt 0.5976 0.7343 0.0000
vt 0.3482 0.4849 0.0000
vt 0.0100 0.4849 0.0000
vt 0.0100 0.2594 0.0000
vt 0.3482 0.2594 0.0000
vt 0.6295 0.7343 0.0000
vt 0.6295 0.5088 0.0000
vt 0.8550 0.5088 0.0000
vt 0.8550 0.7343 0.0000
vt 0.0174 0.8346 0.0000
vt 0.0247 0.7582 0.0000
vt 0.2408 0.7791 0.0000
vt 0.2334 0.8555 0.0000
vt 0.6295 0.8491 0.0000
vt 0.6344 0.7662 0.0000
vt 0.8511 0.7791 0.0000
vt 0.8462 0.8620 0.0000
vt 0.8144 0.2594 0.0000
vt 0.8161 0.3425 0.0000
vt 0.5991 0.3468 0.0000
vt 0.5974 0.2637 0.0000
vt 0.7343 0.1628 0.0000
vt 0.7416 0.0864 0.0000
vt 0.9577 0.1072 0.0000
vt 0.9503 0.1836 0.0000
vt 0.7490 0.0100 0.0000
vt 0.9651 0.0308 0.0000
vt 0.5969 0.7785 0.0000
vt 0.5922 0.8614 0.0000
vt 0.3755 0.8491 0.0000
vt 0.3802 0.7662 0.0000
vt 0.5888 0.9201 0.0000
vt 0.3721 0.9078 0.0000
vt 0.0100 0.9110 0.0000
vt 0.2261 0.9318 0.0000
vt 0.3721 0.4006 0.0000
vt 0.3730 0.3176 0.0000
vt 0.4323 0.2594 0.0000
vt 0.5134 0.4607 0.0000
vt 0.5153 0.2602 0.0000
vt 0.5735 0.3195 0.0000
vt 0.5727 0.4026 0.0000
vt 0.4303 0.4599 0.0000
vt 0.8466 0.9129 0.0000
vt 0.8466 0.9319 0.0000
vt 0.6295 0.9319 0.0000
vt 0.6295 0.9129 0.0000
vt 0.8145 0.3707 0.0000
vt 0.8145 0.3897 0.0000
vt 0.5974 0.3897 0.0000
vt 0.5974 0.3707 0.0000
vt 0.8145 0.4087 0.0000
vt 0.5974 0.4087 0.0000
vt 0.3721 0.9900 0.0000
vt 0.3721 0.9710 0.0000
vt 0.5892 0.9710 0.0000
vt 0.5892 0.9900 0.0000
vt 0.3721 0.9520 0.0000
vt 0.5892 0.9520 0.0000
vt 0.8145 0.4327 0.0000
vt 0.8145 0.4517 0.0000
vt 0.5974 0.4517 0.0000
vt 0.5974 0.4327 0.0000
vt 0.8145 0.4707 0.0000
vt 0.5974 0.4707 0.0000
vt 0.8466 0.8939 0.0000
vt 0.6295 0.8939 0.0000
vt 0.9368 0.5237 0.0000
vt 0.9366 0.5443 0.0000
vt 0.9219 0.5587 0.0000
vt 0.9018 0.5088 0.0000
vt 0.9013 0.5585 0.0000
vt 0.8869 0.5438 0.0000
vt 0.8871 0.5232 0.0000
vt 0.9224 0.5090 0.0000
# 90 texture coords

g Box10
usemtl Material__13
s 2
f 1/1/1 2/2/2 3/3/1 4/4/1 
s 4
f 5/5/3 6/6/3 7/7/3 8/8/3 
s 8
f 1/9/4 4/10/4 6/11/4 5/12/4 
s 16
f 4/13/5 3/14/6 7/15/5 6/16/5 
s 32
f 3/17/7 2/18/8 8/19/8 7/20/9 
s 64
f 2/21/10 1/22/10 5/23/10 8/24/10 
s 8
f 9/25/11 10/26/12 11/27/12 12/28/11 
f 10/29/12 13/30/13 14/31/13 11/32/12 
f 13/33/13 15/34/14 16/35/14 14/36/13 
f 15/37/14 17/38/7 18/39/8 16/40/14 
f 17/38/7 19/41/15 20/42/15 18/39/8 
f 19/43/15 21/44/16 22/45/16 20/46/15 
f 21/44/16 23/47/17 24/48/18 22/45/16 
f 23/49/17 9/25/11 12/28/11 24/50/18 
s 1
f 21/51/19 19/52/20 17/53/21 9/54/22 
f 17/53/21 15/55/21 13/56/21 9/54/22 
f 13/56/21 10/57/22 9/54/22 
f 23/58/19 21/51/19 9/54/22 
s 8
f 25/59/11 26/60/23 27/61/23 28/62/24 
f 26/63/23 29/64/2 30/65/1 27/66/23 
f 29/64/2 31/67/25 32/68/25 30/65/1 
f 31/69/25 33/70/8 34/71/7 32/72/25 
f 33/70/8 35/73/26 36/74/26 34/71/7 
f 35/75/26 37/76/27 38/77/27 36/78/26 
f 37/76/27 39/79/28 40/80/28 38/77/27 
f 39/81/28 25/59/11 28/62/24 40/82/28 
s 1
f 37/83/29 35/84/10 33/85/10 25/86/29 
f 33/85/10 31/87/29 29/88/29 25/86/29 
f 29/88/29 26/89/29 25/86/29 
f 39/90/29 37/83/29 25/86/29 
# 26 polygons - 4 triangles

