# 3ds Max Wavefront OBJ Exporter v0.97b - (c)2007 guruware
# File Created: 14.12.2011 14:27:35

mtllib Turret1.mtl

#
# object Cylinder02
#

v  10.1000 0.3688 0.5263
v  10.0500 0.4554 0.5263
v  10.0500 0.4554 2.3413
v  10.1000 0.3688 2.3413
v  9.9500 0.4554 0.5263
v  9.9500 0.4554 2.3413
v  9.9000 0.3688 0.5263
v  9.9000 0.3688 2.3413
v  9.9500 0.2822 0.5263
v  9.9500 0.2822 2.3413
v  10.0500 0.2822 0.5263
v  10.0500 0.2822 2.3413
v  10.9272 0.0044 -0.3721
v  10.3907 0.0044 -0.9180
v  10.3006 0.5735 -0.7057
v  10.7133 0.5735 -0.2857
v  9.6254 0.0044 -0.9247
v  9.7118 0.5735 -0.7108
v  9.0795 0.0044 -0.3883
v  9.2919 0.5735 -0.2981
v  9.0728 0.0044 0.3771
v  9.2867 0.5735 0.2906
v  9.6093 0.0044 0.9230
v  9.6994 0.5735 0.7106
v  10.3746 0.0044 0.9297
v  10.2882 0.5735 0.7157
v  10.9205 0.0044 0.3932
v  10.7081 0.5735 0.3030
# 28 vertices

vn 1.0000 0.0000 0.0000
vn 0.5000 0.8660 0.0000
vn 1.0000 -0.0000 0.0000
vn -0.5000 0.8660 0.0000
vn -1.0000 -0.0000 0.0000
vn -1.0000 -0.0000 -0.0000
vn -0.5000 -0.8660 -0.0000
vn 0.5000 -0.8660 -0.0000
vn 0.0000 -0.0000 1.0000
vn 0.8592 0.3757 -0.3472
vn 0.3621 0.3757 -0.8531
vn -0.3472 0.3757 -0.8592
vn -0.8531 0.3757 -0.3621
vn -0.8592 0.3757 0.3472
vn -0.3621 0.3757 0.8531
vn 0.3472 0.3757 0.8592
vn 0.8531 0.3757 0.3621
vn 0.0000 -1.0000 -0.0000
vn 0.0000 -1.0000 0.0000
vn -0.0000 -1.0000 0.0000
vn -0.0000 1.0000 0.0000
vn 0.0000 1.0000 0.0000
vn -0.0000 1.0000 -0.0000
# 23 vertex normals

vt 0.5094 0.8301 0.0000
vt 0.5094 0.8071 0.0000
vt 0.9900 0.8071 0.0000
vt 0.9900 0.8301 0.0000
vt 0.5094 0.9125 0.0000
vt 0.5094 0.8860 0.0000
vt 0.9900 0.8860 0.0000
vt 0.9900 0.9125 0.0000
vt 0.5094 0.7741 0.0000
vt 0.5094 0.7512 0.0000
vt 0.9900 0.7512 0.0000
vt 0.9900 0.7741 0.0000
vt 0.5094 0.7283 0.0000
vt 0.9900 0.7283 0.0000
vt 0.5094 0.9720 0.0000
vt 0.5094 0.9455 0.0000
vt 0.9900 0.9455 0.0000
vt 0.9900 0.9720 0.0000
vt 0.5094 0.8530 0.0000
vt 0.9900 0.8530 0.0000
vt 0.0232 0.8956 0.0000
vt 0.0497 0.8956 0.0000
vt 0.0630 0.9185 0.0000
vt 0.0232 0.9414 0.0000
vt 0.0497 0.9414 0.0000
vt 0.0100 0.9185 0.0000
vt 0.6967 0.3444 0.0000
vt 0.5094 0.3444 0.0000
vt 0.5526 0.1937 0.0000
vt 0.6967 0.1937 0.0000
vt 0.5094 0.3774 0.0000
vt 0.6967 0.3774 0.0000
vt 0.6967 0.5281 0.0000
vt 0.5526 0.5281 0.0000
vt 0.8839 0.3774 0.0000
vt 0.8407 0.5281 0.0000
vt 0.5094 0.0100 0.0000
vt 0.6967 0.0100 0.0000
vt 0.6967 0.1607 0.0000
vt 0.5526 0.1607 0.0000
vt 0.8839 0.0100 0.0000
vt 0.8407 0.1607 0.0000
vt 0.8839 0.7035 0.0000
vt 0.6967 0.7035 0.0000
vt 0.6967 0.5528 0.0000
vt 0.8407 0.5528 0.0000
vt 0.5094 0.7035 0.0000
vt 0.5526 0.5528 0.0000
vt 0.8839 0.3444 0.0000
vt 0.8407 0.1937 0.0000
vt 0.0100 0.3545 0.0000
vt 0.0120 0.1519 0.0000
vt 0.1567 0.0100 0.0000
vt 0.3545 0.5012 0.0000
vt 0.3593 0.0120 0.0000
vt 0.5012 0.1567 0.0000
vt 0.4992 0.3593 0.0000
vt 0.1519 0.4992 0.0000
vt 0.2787 0.5110 0.0000
vt 0.3879 0.6223 0.0000
vt 0.3863 0.7782 0.0000
vt 0.0115 0.6186 0.0000
vt 0.2750 0.8873 0.0000
vt 0.1191 0.8858 0.0000
vt 0.0100 0.7745 0.0000
vt 0.1228 0.5094 0.0000
# 66 texture coords

g Cylinder02
usemtl Material__3
s 8
f 1/1/1 2/2/2 3/3/2 4/4/3 
f 2/5/2 5/6/4 6/7/4 3/8/2 
f 5/9/4 7/10/5 8/11/6 6/12/4 
f 7/10/5 9/13/7 10/14/7 8/11/6 
f 9/15/7 11/16/8 12/17/8 10/18/7 
f 11/19/8 1/1/1 4/4/3 12/20/8 
s 1
f 3/21/9 6/22/9 8/23/9 12/24/9 
f 8/23/9 10/25/9 12/24/9 
f 4/26/9 3/21/9 12/24/9 
s 8
f 13/27/10 14/28/11 15/29/11 16/30/10 
f 14/31/11 17/32/12 18/33/12 15/34/11 
f 17/32/12 19/35/13 20/36/13 18/33/12 
f 19/37/13 21/38/14 22/39/14 20/40/13 
f 21/38/14 23/41/15 24/42/15 22/39/14 
f 23/43/15 25/44/16 26/45/16 24/46/15 
f 25/44/16 27/47/17 28/48/17 26/45/16 
f 27/49/17 13/27/10 16/30/10 28/50/17 
s 1
f 25/51/18 23/52/18 21/53/19 13/54/19 
f 21/53/19 19/55/19 17/56/19 13/54/19 
f 17/56/19 14/57/20 13/54/19 
f 27/58/19 25/51/18 13/54/19 
f 15/59/21 18/60/22 20/61/22 28/62/21 
f 20/61/22 22/63/23 24/64/22 28/62/21 
f 24/64/22 26/65/22 28/62/21 
f 16/66/21 15/59/21 28/62/21 
# 19 polygons - 6 triangles

