# 3ds Max Wavefront OBJ Exporter v0.97b - (c)2007 guruware
# File Created: 14.12.2011 14:27:21

mtllib Turret3.mtl

#
# object Cylinder04
#

v  9.8938 0.5629 -9.4156
v  9.8438 0.6495 -9.4156
v  9.8438 0.6495 -7.6006
v  9.8938 0.5629 -7.6006
v  9.7438 0.6495 -9.4156
v  9.7438 0.6495 -7.6006
v  9.6938 0.5629 -9.4156
v  9.6938 0.5629 -7.6006
v  9.7438 0.4763 -9.4156
v  9.7438 0.4763 -7.6006
v  9.8438 0.4763 -9.4156
v  9.8438 0.4763 -7.6006
v  10.8299 0.0053 -9.9865
v  10.5868 0.0053 -10.5733
v  10.6955 0.6861 -10.6819
v  10.9835 0.6861 -9.9865
v  10.0000 0.0053 -10.8163
v  10.0000 0.6861 -10.9700
v  9.4132 0.0053 -10.5733
v  9.3045 0.6861 -10.6819
v  9.1701 0.0053 -9.9865
v  9.0165 0.6861 -9.9865
v  9.4132 0.0053 -9.3997
v  9.3045 0.6861 -9.2910
v  10.0000 0.0053 -9.1566
v  10.0000 0.6861 -9.0029
v  10.5868 0.0053 -9.3997
v  10.6955 0.6861 -9.2910
v  10.5530 0.9920 -10.5395
v  10.0000 0.9920 -10.7686
v  9.4470 0.9920 -10.5395
v  10.5530 0.9920 -9.4334
v  9.2179 0.9920 -9.9865
v  9.4470 0.9920 -9.4334
v  10.0000 0.9920 -9.2044
v  10.7821 0.9920 -9.9865
v  10.3021 0.5629 -9.4156
v  10.2521 0.6495 -9.4156
v  10.2521 0.6495 -7.6006
v  10.3021 0.5629 -7.6006
v  10.1521 0.6495 -9.4156
v  10.1521 0.6495 -7.6006
v  10.1021 0.5629 -9.4156
v  10.1021 0.5629 -7.6006
v  10.1521 0.4763 -9.4156
v  10.1521 0.4763 -7.6006
v  10.2521 0.4763 -9.4156
v  10.2521 0.4763 -7.6006
v  9.8938 0.2446 -9.4156
v  9.8438 0.3312 -9.4156
v  9.8438 0.3312 -7.6006
v  9.8938 0.2446 -7.6006
v  9.7438 0.3312 -9.4156
v  9.7438 0.3312 -7.6006
v  9.6938 0.2446 -9.4156
v  9.6938 0.2446 -7.6006
v  9.7438 0.1580 -9.4156
v  9.7438 0.1580 -7.6006
v  9.8438 0.1580 -9.4156
v  9.8438 0.1580 -7.6006
v  10.3021 0.2446 -9.4156
v  10.2521 0.3312 -9.4156
v  10.2521 0.3312 -7.6006
v  10.3021 0.2446 -7.6006
v  10.1521 0.3312 -9.4156
v  10.1521 0.3312 -7.6006
v  10.1021 0.2446 -9.4156
v  10.1021 0.2446 -7.6006
v  10.1521 0.1580 -9.4156
v  10.1521 0.1580 -7.6006
v  10.2521 0.1580 -9.4156
v  10.2521 0.1580 -7.6006
# 72 vertices

vn 1.0000 -0.0000 -0.0000
vn 0.5000 0.8660 0.0000
vn -0.5000 0.8660 0.0000
vn -1.0000 -0.0000 -0.0000
vn -0.5000 -0.8660 -0.0000
vn 0.5000 -0.8660 -0.0000
vn 0.0000 -0.0000 1.0000
vn 0.9755 -0.2202 -0.0000
vn 0.6898 -0.2202 -0.6898
vn -0.0000 -0.2202 -0.9755
vn 0.0000 -0.2202 -0.9755
vn -0.6898 -0.2202 -0.6898
vn -0.9755 -0.2202 0.0000
vn -0.6898 -0.2202 0.6898
vn 0.0000 -0.2202 0.9755
vn 0.6898 -0.2202 0.6898
vn 0.0000 -1.0000 -0.0000
vn 0.0000 -1.0000 0.0000
vn -0.0000 -1.0000 0.0000
vn -0.0000 -1.0000 -0.0000
vn 0.0000 1.0000 0.0000
vn 1.0000 -0.0000 0.0000
vn 0.7892 0.5198 -0.3269
vn 0.3269 0.5198 -0.7892
vn -0.3269 0.5198 -0.7892
vn -0.7892 0.5198 -0.3269
vn -0.7892 0.5198 0.3269
vn -0.3269 0.5198 0.7892
vn 0.3269 0.5198 0.7892
vn 0.7892 0.5198 0.3269
vn 1.0000 0.0000 -0.0000
vn -1.0000 -0.0000 0.0000
# 32 vertex normals

vt 0.5892 0.0255 0.0000
vt 0.5892 0.0100 0.0000
vt 0.9141 0.0100 0.0000
vt 0.9141 0.0255 0.0000
vt 0.3129 0.6751 0.0000
vt 0.3129 0.6572 0.0000
vt 0.6378 0.6572 0.0000
vt 0.6378 0.6751 0.0000
vt 0.3129 0.4489 0.0000
vt 0.3129 0.4334 0.0000
vt 0.6378 0.4334 0.0000
vt 0.6378 0.4489 0.0000
vt 0.3129 0.4179 0.0000
vt 0.6378 0.4179 0.0000
vt 0.6651 0.7204 0.0000
vt 0.6651 0.7025 0.0000
vt 0.9900 0.7025 0.0000
vt 0.9900 0.7204 0.0000
vt 0.5892 0.0410 0.0000
vt 0.9141 0.0410 0.0000
vt 0.1794 0.9801 0.0000
vt 0.1615 0.9801 0.0000
vt 0.1525 0.9646 0.0000
vt 0.1794 0.9491 0.0000
vt 0.1615 0.9491 0.0000
vt 0.1883 0.9646 0.0000
vt 0.4374 0.3906 0.0000
vt 0.3324 0.3906 0.0000
vt 0.3129 0.2687 0.0000
vt 0.4374 0.2687 0.0000
vt 0.0295 0.6000 0.0000
vt 0.1345 0.6000 0.0000
vt 0.1345 0.7218 0.0000
vt 0.0100 0.7218 0.0000
vt 0.2395 0.6000 0.0000
vt 0.2590 0.7218 0.0000
vt 0.3324 0.0100 0.0000
vt 0.4374 0.0100 0.0000
vt 0.4374 0.1319 0.0000
vt 0.3129 0.1319 0.0000
vt 0.5424 0.0100 0.0000
vt 0.5619 0.1319 0.0000
vt 0.0350 0.7971 0.0000
vt 0.1479 0.8104 0.0000
vt 0.1438 0.9353 0.0000
vt 0.0100 0.9195 0.0000
vt 0.2297 0.8035 0.0000
vt 0.2407 0.9271 0.0000
vt 0.5424 0.3906 0.0000
vt 0.5619 0.2687 0.0000
vt 0.2033 0.2856 0.0000
vt 0.0896 0.2845 0.0000
vt 0.0100 0.2033 0.0000
vt 0.2856 0.0923 0.0000
vt 0.0111 0.0896 0.0000
vt 0.0923 0.0100 0.0000
vt 0.2060 0.0111 0.0000
vt 0.2845 0.2060 0.0000
vt 0.0111 0.3879 0.0000
vt 0.0876 0.3129 0.0000
vt 0.1947 0.3140 0.0000
vt 0.0850 0.5716 0.0000
vt 0.2697 0.3905 0.0000
vt 0.2687 0.4976 0.0000
vt 0.1922 0.5726 0.0000
vt 0.0100 0.4951 0.0000
vt 0.6651 0.5394 0.0000
vt 0.6651 0.5215 0.0000
vt 0.9900 0.5215 0.0000
vt 0.9900 0.5394 0.0000
vt 0.5892 0.1315 0.0000
vt 0.5892 0.1136 0.0000
vt 0.9141 0.1136 0.0000
vt 0.9141 0.1315 0.0000
vt 0.3129 0.8561 0.0000
vt 0.3129 0.8382 0.0000
vt 0.6378 0.8382 0.0000
vt 0.6378 0.8561 0.0000
vt 0.6651 0.6751 0.0000
vt 0.6651 0.6572 0.0000
vt 0.9900 0.6572 0.0000
vt 0.9900 0.6751 0.0000
vt 0.3129 0.8109 0.0000
vt 0.3129 0.7930 0.0000
vt 0.6378 0.7930 0.0000
vt 0.6378 0.8109 0.0000
vt 0.6651 0.7656 0.0000
vt 0.6651 0.7477 0.0000
vt 0.9900 0.7477 0.0000
vt 0.9900 0.7656 0.0000
vt 0.9504 0.0100 0.0000
vt 0.9683 0.0100 0.0000
vt 0.9772 0.0255 0.0000
vt 0.9504 0.0410 0.0000
vt 0.9683 0.0410 0.0000
vt 0.9414 0.0255 0.0000
vt 0.3384 0.2140 0.0000
vt 0.4374 0.2140 0.0000
vt 0.1345 0.7766 0.0000
vt 0.0355 0.7766 0.0000
vt 0.2335 0.7766 0.0000
vt 0.4374 0.1866 0.0000
vt 0.3384 0.1866 0.0000
vt 0.5364 0.1866 0.0000
vt 0.1246 0.9801 0.0000
vt 0.0182 0.9676 0.0000
vt 0.7239 0.2778 0.0000
vt 0.5892 0.2800 0.0000
vt 0.6020 0.2157 0.0000
vt 0.7091 0.2140 0.0000
vt 0.5364 0.2140 0.0000
vt 0.6651 0.5846 0.0000
vt 0.6651 0.5667 0.0000
vt 0.9900 0.5667 0.0000
vt 0.9900 0.5846 0.0000
vt 0.6651 0.6299 0.0000
vt 0.6651 0.6120 0.0000
vt 0.9900 0.6120 0.0000
vt 0.9900 0.6299 0.0000
vt 0.3129 0.5846 0.0000
vt 0.3129 0.5667 0.0000
vt 0.6378 0.5667 0.0000
vt 0.6378 0.5846 0.0000
vt 0.6651 0.4358 0.0000
vt 0.6651 0.4179 0.0000
vt 0.9900 0.4179 0.0000
vt 0.9900 0.4358 0.0000
vt 0.3129 0.7204 0.0000
vt 0.3129 0.7025 0.0000
vt 0.6378 0.7025 0.0000
vt 0.6378 0.7204 0.0000
vt 0.6651 0.4942 0.0000
vt 0.6651 0.4763 0.0000
vt 0.9900 0.4763 0.0000
vt 0.9900 0.4942 0.0000
vt 0.5982 0.3074 0.0000
vt 0.6161 0.3074 0.0000
vt 0.6250 0.3229 0.0000
vt 0.5982 0.3384 0.0000
vt 0.6161 0.3384 0.0000
vt 0.5892 0.3229 0.0000
vt 0.5892 0.1767 0.0000
vt 0.5892 0.1588 0.0000
vt 0.9141 0.1588 0.0000
vt 0.9141 0.1767 0.0000
vt 0.3129 0.6299 0.0000
vt 0.3129 0.6120 0.0000
vt 0.6378 0.6120 0.0000
vt 0.6378 0.6299 0.0000
vt 0.3129 0.5394 0.0000
vt 0.3129 0.5215 0.0000
vt 0.6378 0.5215 0.0000
vt 0.6378 0.5394 0.0000
vt 0.5892 0.0862 0.0000
vt 0.5892 0.0683 0.0000
vt 0.9141 0.0683 0.0000
vt 0.9141 0.0862 0.0000
vt 0.3129 0.7656 0.0000
vt 0.3129 0.7477 0.0000
vt 0.6378 0.7477 0.0000
vt 0.6378 0.7656 0.0000
vt 0.3129 0.4942 0.0000
vt 0.3129 0.4763 0.0000
vt 0.6378 0.4763 0.0000
vt 0.6378 0.4942 0.0000
vt 0.2220 0.9801 0.0000
vt 0.2041 0.9801 0.0000
vt 0.1952 0.9646 0.0000
vt 0.2220 0.9491 0.0000
vt 0.2041 0.9491 0.0000
vt 0.2310 0.9646 0.0000
# 171 texture coords

g Cylinder04
usemtl Material__6
s 8
f 1/1/1 2/2/2 3/3/2 4/4/1 
f 2/5/2 5/6/3 6/7/3 3/8/2 
f 5/9/3 7/10/4 8/11/4 6/12/3 
f 7/10/4 9/13/5 10/14/5 8/11/4 
f 9/15/5 11/16/6 12/17/6 10/18/5 
f 11/19/6 1/1/1 4/4/1 12/20/6 
s 1
f 3/21/7 6/22/7 8/23/7 12/24/7 
f 8/23/7 10/25/7 12/24/7 
f 4/26/7 3/21/7 12/24/7 
s 8
f 13/27/8 14/28/9 15/29/9 16/30/8 
f 14/31/9 17/32/10 18/33/11 15/34/9 
f 17/32/10 19/35/12 20/36/12 18/33/11 
f 19/37/12 21/38/13 22/39/13 20/40/12 
f 21/38/13 23/41/14 24/42/14 22/39/13 
f 23/43/14 25/44/15 26/45/15 24/46/14 
f 25/44/15 27/47/16 28/48/16 26/45/15 
f 27/49/16 13/27/8 16/30/8 28/50/16 
s 1
f 25/51/17 23/52/17 21/53/18 13/54/19 
f 21/53/18 19/55/19 17/56/19 13/54/19 
f 17/56/19 14/57/18 13/54/19 
f 27/58/20 25/51/17 13/54/19 
f 29/59/21 30/60/21 31/61/21 32/62/21 
f 31/61/21 33/63/21 34/64/21 32/62/21 
f 34/64/21 35/65/21 32/62/21 
f 36/66/21 29/59/21 32/62/21 
s 8
f 37/67/22 38/68/2 39/69/2 40/70/1 
f 38/71/2 41/72/3 42/73/3 39/74/2 
f 41/75/3 43/76/4 44/77/4 42/78/3 
f 43/79/4 45/80/5 46/81/5 44/82/4 
f 45/83/5 47/84/6 48/85/6 46/86/5 
f 47/87/6 37/88/22 40/89/1 48/90/6 
s 1
f 39/91/7 42/92/7 44/93/7 48/94/7 
f 44/93/7 46/95/7 48/94/7 
f 40/96/7 39/91/7 48/94/7 
s off
f 16/30/23 15/29/23 29/97/23 36/98/23 
f 15/34/24 18/33/24 30/99/24 29/100/24 
f 18/33/25 20/36/25 31/101/25 30/99/25 
f 20/40/26 22/39/26 33/102/26 31/103/26 
f 22/39/27 24/42/27 34/104/27 33/102/27 
f 24/46/28 26/45/28 35/105/28 34/106/28 
f 26/107/29 28/108/29 32/109/29 35/110/29 
f 28/50/30 16/30/30 36/98/30 32/111/30 
s 8
f 49/112/31 50/113/2 51/114/2 52/115/22 
f 50/116/2 53/117/3 54/118/3 51/119/2 
f 53/120/3 55/121/32 56/122/4 54/123/3 
f 55/124/32 57/125/5 58/126/5 56/127/4 
f 57/128/5 59/129/6 60/130/6 58/131/5 
f 59/132/6 49/133/31 52/134/22 60/135/6 
s 1
f 51/136/7 54/137/7 56/138/7 60/139/7 
f 56/138/7 58/140/7 60/139/7 
f 52/141/7 51/136/7 60/139/7 
s 8
f 61/142/31 62/143/2 63/144/2 64/145/22 
f 62/146/2 65/147/3 66/148/3 63/149/2 
f 65/150/3 67/151/32 68/152/4 66/153/3 
f 67/154/32 69/155/5 70/156/5 68/157/4 
f 69/158/5 71/159/6 72/160/6 70/161/5 
f 71/162/6 61/163/31 64/164/22 72/165/6 
s 1
f 63/166/7 66/167/7 68/168/7 72/169/7 
f 68/168/7 70/170/7 72/169/7 
f 64/171/7 63/166/7 72/169/7 
# 48 polygons - 12 triangles

