# 3ds Max Wavefront OBJ Exporter v0.97b - (c)2007 guruware
# File Created: 14.12.2011 14:27:13

mtllib Aircraft1.mtl

#
# object Box17
#

v  3.3011 0.1825 0.6057
v  4.0000 0.1825 -0.5188
v  4.5997 0.1825 1.6057
v  5.0000 0.4720 2.3909
v  5.0000 0.5893 1.3779
v  4.5997 0.4453 1.6057
v  5.0000 0.1825 2.6057
v  5.3995 0.1825 1.6057
v  5.3995 0.4453 1.6057
v  6.0000 0.1825 -0.5188
v  6.0000 0.4629 -0.5188
v  6.8660 0.3347 0.1060
v  6.8660 0.1825 0.2157
v  3.3011 0.3347 0.4960
v  5.0000 0.1825 0.1115
v  5.0000 0.0399 1.3586
v  4.0000 0.4629 -0.5188
v  5.0000 0.3971 0.2363
v  3.1340 0.1825 0.2157
v  3.1340 0.3347 0.1060
v  6.6973 0.3347 0.4960
v  6.6973 0.1825 0.6057
v  4.0145 0.0914 1.3643
v  4.0729 0.0914 1.3309
v  4.0437 0.1420 1.3309
v  3.9853 0.1420 1.3309
v  3.9561 0.0914 1.3309
v  3.9853 0.0409 1.3309
v  4.0437 0.0409 1.3309
v  4.1312 0.0914 1.2297
v  4.0729 0.1926 1.2297
v  3.9561 0.1926 1.2297
v  3.8977 0.0914 1.2297
v  3.9561 -0.0097 1.2297
v  4.0729 -0.0097 1.2297
v  4.1156 0.0914 0.3620
v  4.0650 0.1790 0.3620
v  3.9639 0.1790 0.3620
v  3.9134 0.0914 0.3620
v  3.9639 0.0039 0.3620
v  4.0650 0.0039 0.3620
v  4.0729 0.0914 0.3193
v  4.0437 0.1420 0.3193
v  3.9853 0.1420 0.3193
v  3.9561 0.0914 0.3193
v  3.9853 0.0409 0.3193
v  4.0437 0.0409 0.3193
v  4.0145 0.0914 0.2900
v  6.0154 0.0914 1.3643
v  6.0738 0.0914 1.3309
v  6.0446 0.1420 1.3309
v  5.9862 0.1420 1.3309
v  5.9570 0.0914 1.3309
v  5.9862 0.0409 1.3309
v  6.0446 0.0409 1.3309
v  6.1321 0.0914 1.2297
v  6.0738 0.1926 1.2297
v  5.9570 0.1926 1.2297
v  5.8986 0.0914 1.2297
v  5.9570 -0.0097 1.2297
v  6.0738 -0.0097 1.2297
v  6.1165 0.0914 0.3620
v  6.0659 0.1790 0.3620
v  5.9648 0.1790 0.3620
v  5.9143 0.0914 0.3620
v  5.9648 0.0039 0.3620
v  6.0659 0.0039 0.3620
v  6.0738 0.0914 0.3193
v  6.0446 0.1420 0.3193
v  5.9862 0.1420 0.3193
v  5.9570 0.0914 0.3193
v  5.9862 0.0409 0.3193
v  6.0446 0.0409 0.3193
v  6.0154 0.0914 0.2900
# 74 vertices

vn 0.0000 -1.0000 -0.0000
vn -0.2151 -0.9762 0.0290
vn 0.0000 0.9934 0.1150
vn 0.0003 0.9978 -0.0670
vn -0.2324 0.9724 0.0197
vn 0.8780 0.2403 0.4139
vn 0.8119 0.0167 0.5835
vn 0.8128 0.0295 0.5818
vn 0.8506 0.3133 0.4222
vn 0.0348 -0.0300 -0.9989
vn 0.0095 0.0336 -0.9994
vn 0.5773 -0.4266 -0.6962
vn 0.5669 -0.4817 -0.6683
vn -0.5298 0.4959 0.6880
vn -0.7893 0.0450 0.6124
vn -0.5524 0.4417 0.7070
vn 0.0000 -0.9999 -0.0140
vn 0.2156 -0.9761 0.0290
vn 0.0003 -0.9993 -0.0368
vn 0.2329 0.9723 0.0198
vn 0.0000 0.4453 -0.8954
vn -0.0348 -0.0300 -0.9989
vn -0.0095 0.0336 -0.9994
vn 0.0000 0.5027 -0.8644
vn -0.5669 -0.4817 -0.6683
vn -0.5773 -0.4266 -0.6962
vn 0.1120 0.9925 0.0485
vn 0.8823 0.2752 0.3818
vn -0.8842 0.2731 0.3789
vn -0.1122 0.9925 0.0481
vn -0.0000 0.9995 -0.0328
vn -0.0376 0.9991 0.0189
vn -0.1206 0.9918 0.0422
vn 0.0376 0.9991 0.0189
vn 0.1207 0.9918 0.0423
vn 0.0000 -0.9935 0.1136
vn 0.0000 0.0000 1.0000
vn 0.7436 0.0000 0.6686
vn 0.3718 0.6440 0.6686
vn -0.3718 0.6440 0.6686
vn -0.7436 -0.0000 0.6686
vn -0.3718 -0.6440 0.6686
vn 0.3718 -0.6440 0.6686
vn 0.9728 -0.0000 0.2316
vn 0.4864 0.8425 0.2316
vn -0.4864 0.8425 0.2316
vn -0.9728 -0.0000 0.2316
vn -0.4864 -0.8425 0.2316
vn 0.4864 -0.8425 0.2316
vn 0.9354 -0.0000 -0.3536
vn 0.4677 0.8101 -0.3536
vn -0.4677 0.8101 -0.3536
vn -0.9354 0.0000 -0.3536
vn -0.4677 -0.8101 -0.3536
vn 0.4677 -0.8101 -0.3536
vn 0.6177 0.0000 -0.7865
vn 0.3088 0.5349 -0.7865
vn -0.3088 0.5349 -0.7865
vn -0.6177 0.0000 -0.7865
vn -0.3088 -0.5349 -0.7865
vn 0.3088 -0.5349 -0.7865
vn 0.0000 0.0000 -1.0000
vn -0.8950 0.2659 0.3583
vn -0.8986 0.2308 0.3731
vn -0.7891 0.0000 0.6143
vn 0.5526 0.4416 0.7068
vn 0.5301 0.4958 0.6879
# 67 vertex normals

vt 0.0202 0.0745 0.0000
vt 0.2239 0.0145 0.0000
vt 0.0688 0.3328 0.0000
vt 0.4772 0.5174 0.0000
vt 0.3690 0.6386 0.0000
vt 0.3454 0.5687 0.0000
vt 0.6169 0.4257 0.0000
vt 0.6169 0.5860 0.0000
vt 0.5748 0.5860 0.0000
vt 0.5705 0.4601 0.0000
vt 0.5556 0.1489 0.0000
vt 0.5107 0.1489 0.0000
vt 0.5312 0.0100 0.0000
vt 0.5556 0.0100 0.0000
vt 0.6169 0.0901 0.0000
vt 0.6169 0.2505 0.0000
vt 0.5925 0.0725 0.0000
vt 0.2762 0.1967 0.0000
vt 0.1645 0.4181 0.0000
vt 0.1431 0.3459 0.0000
vt 0.4412 0.6540 0.0000
vt 0.5556 0.3092 0.0000
vt 0.5556 0.4695 0.0000
vt 0.5107 0.4695 0.0000
vt 0.5212 0.3092 0.0000
vt 0.5556 0.6084 0.0000
vt 0.5312 0.6084 0.0000
vt 0.2862 0.9723 0.0000
vt 0.4780 0.9253 0.0000
vt 0.4565 0.9900 0.0000
vt 0.5925 0.7639 0.0000
vt 0.6169 0.7464 0.0000
vt 0.6169 0.8089 0.0000
vt 0.5925 0.8265 0.0000
vt 0.4266 0.4370 0.0000
vt 0.4632 0.2280 0.0000
vt 0.4884 0.4084 0.0000
vt 0.0418 0.0100 0.0000
vt 0.5925 0.0100 0.0000
vt 0.6169 0.0276 0.0000
vt 0.0716 0.5628 0.0000
vt 0.0469 0.7588 0.0000
vt 0.0100 0.5916 0.0000
vt 0.2472 0.7752 0.0000
vt 0.0100 0.4951 0.0000
vt 0.1477 0.8179 0.0000
vt 0.1477 0.8085 0.0000
vt 0.1558 0.8132 0.0000
vt 0.1558 0.8225 0.0000
vt 0.1477 0.8272 0.0000
vt 0.1396 0.8225 0.0000
vt 0.1396 0.8132 0.0000
vt 0.0997 0.9738 0.0000
vt 0.1159 0.9738 0.0000
vt 0.1078 0.9900 0.0000
vt 0.0997 0.9900 0.0000
vt 0.3424 0.1399 0.0000
vt 0.3424 0.1587 0.0000
vt 0.3262 0.1540 0.0000
vt 0.3262 0.1446 0.0000
vt 0.2355 0.8509 0.0000
vt 0.2193 0.8509 0.0000
vt 0.2193 0.8347 0.0000
vt 0.2274 0.8347 0.0000
vt 0.2031 0.8509 0.0000
vt 0.2112 0.8347 0.0000
vt 0.3191 0.5532 0.0000
vt 0.3191 0.5345 0.0000
vt 0.3354 0.5392 0.0000
vt 0.3354 0.5485 0.0000
vt 0.0835 0.9738 0.0000
vt 0.0916 0.9900 0.0000
vt 0.0997 0.8347 0.0000
vt 0.1138 0.8347 0.0000
vt 0.4815 0.1412 0.0000
vt 0.4815 0.1574 0.0000
vt 0.2333 0.9900 0.0000
vt 0.2193 0.9900 0.0000
vt 0.2053 0.9900 0.0000
vt 0.1800 0.5519 0.0000
vt 0.1800 0.5357 0.0000
vt 0.0857 0.8347 0.0000
vt 0.5749 0.0252 0.0000
vt 0.5716 0.0164 0.0000
vt 0.5789 0.0100 0.0000
vt 0.5846 0.0252 0.0000
vt 0.4884 0.1446 0.0000
vt 0.4884 0.1540 0.0000
vt 0.2291 0.8272 0.0000
vt 0.2204 0.8239 0.0000
vt 0.2204 0.8142 0.0000
vt 0.2355 0.8200 0.0000
vt 0.2141 0.8272 0.0000
vt 0.2095 0.8200 0.0000
vt 0.1732 0.5485 0.0000
vt 0.1732 0.5392 0.0000
vt 0.5716 0.0314 0.0000
vt 0.5789 0.0360 0.0000
vt 0.1005 0.5532 0.0000
vt 0.1005 0.5438 0.0000
vt 0.1087 0.5485 0.0000
vt 0.1087 0.5392 0.0000
vt 0.1005 0.5345 0.0000
vt 0.0924 0.5392 0.0000
vt 0.0924 0.5485 0.0000
vt 0.1876 0.8179 0.0000
vt 0.1876 0.8085 0.0000
vt 0.1957 0.8132 0.0000
vt 0.1957 0.8225 0.0000
vt 0.1876 0.8272 0.0000
vt 0.1795 0.8225 0.0000
vt 0.1795 0.8132 0.0000
vt 0.1795 0.9738 0.0000
vt 0.1957 0.9738 0.0000
vt 0.1876 0.9900 0.0000
vt 0.1795 0.9900 0.0000
vt 0.3424 0.4764 0.0000
vt 0.3424 0.4951 0.0000
vt 0.3262 0.4905 0.0000
vt 0.3262 0.4811 0.0000
vt 0.1558 0.8509 0.0000
vt 0.1396 0.8509 0.0000
vt 0.1396 0.8347 0.0000
vt 0.1477 0.8347 0.0000
vt 0.1234 0.8509 0.0000
vt 0.1315 0.8347 0.0000
vt 0.4722 0.1848 0.0000
vt 0.4722 0.1661 0.0000
vt 0.4884 0.1708 0.0000
vt 0.4884 0.1801 0.0000
vt 0.1632 0.9738 0.0000
vt 0.1713 0.9900 0.0000
vt 0.1795 0.8347 0.0000
vt 0.1935 0.8347 0.0000
vt 0.4815 0.4777 0.0000
vt 0.4815 0.4939 0.0000
vt 0.1536 0.9900 0.0000
vt 0.1396 0.9900 0.0000
vt 0.1256 0.9900 0.0000
vt 0.3330 0.1836 0.0000
vt 0.3330 0.1674 0.0000
vt 0.1654 0.8347 0.0000
vt 0.5749 0.7878 0.0000
vt 0.5716 0.7791 0.0000
vt 0.5789 0.7727 0.0000
vt 0.5846 0.7878 0.0000
vt 0.4884 0.4811 0.0000
vt 0.4884 0.4905 0.0000
vt 0.1593 0.5532 0.0000
vt 0.1506 0.5499 0.0000
vt 0.1506 0.5402 0.0000
vt 0.1657 0.5459 0.0000
vt 0.1443 0.5532 0.0000
vt 0.1397 0.5459 0.0000
vt 0.3262 0.1801 0.0000
vt 0.3262 0.1708 0.0000
vt 0.5716 0.7941 0.0000
vt 0.5789 0.7987 0.0000
vt 0.1242 0.5532 0.0000
vt 0.1242 0.5438 0.0000
vt 0.1323 0.5485 0.0000
vt 0.1323 0.5392 0.0000
vt 0.1242 0.5345 0.0000
vt 0.1161 0.5392 0.0000
vt 0.1161 0.5485 0.0000
vt 0.6169 0.4108 0.0000
vt 0.5705 0.3764 0.0000
vt 0.5748 0.2505 0.0000
# 168 texture coords

g Box17
usemtl Material__23
s 2
f 1/1/1 2/2/1 3/3/2 
s 4
f 4/4/3 5/5/4 6/6/5 
s 16
f 7/7/6 8/8/7 9/9/8 4/10/9 
s 32
f 10/11/10 11/12/11 12/13/12 13/14/13 
s 64
f 1/15/14 3/16/15 14/17/16 
s 2
f 15/18/17 8/19/18 16/20/19 
s 4
f 4/4/3 9/21/20 5/5/4 
s 32
f 15/22/21 2/23/22 17/24/23 18/25/24 
f 2/23/22 19/26/25 20/27/26 17/24/23 
f 15/22/21 18/25/24 11/12/11 10/11/10 
s 1
f 11/28/27 21/29/27 12/30/27 
s 8
f 21/31/28 22/32/28 13/33/28 12/34/28 
s 1
f 22/35/1 10/36/1 13/37/1 
f 2/2/1 1/1/1 19/38/1 
s 8
f 14/17/29 20/39/29 19/40/29 1/15/29 
s 1
f 14/41/30 17/42/30 20/43/30 
s 4
f 5/5/4 18/44/31 6/6/5 
f 9/21/20 18/44/31 5/5/4 
f 18/44/31 17/42/32 6/6/5 
f 17/42/32 14/41/33 6/6/5 
f 9/21/20 11/28/34 18/44/31 
f 9/21/20 21/29/35 11/28/34 
s 2
f 16/20/19 7/45/36 3/3/2 
f 8/19/18 7/45/36 16/20/19 
s 4
f 23/46/37 24/47/38 25/48/39 
f 23/46/37 25/48/39 26/49/40 
f 23/46/37 26/49/40 27/50/41 
f 23/46/37 27/50/41 28/51/42 
f 23/46/37 28/51/42 29/52/43 
f 23/46/37 29/52/43 24/47/38 
f 30/53/44 31/54/45 25/55/39 24/56/38 
f 31/57/45 32/58/46 26/59/40 25/60/39 
f 32/61/46 33/62/47 27/63/41 26/64/40 
f 33/62/47 34/65/48 28/66/42 27/63/41 
f 34/67/48 35/68/49 29/69/43 28/70/42 
f 35/71/49 30/53/44 24/56/38 29/72/43 
f 36/73/50 37/74/51 31/54/45 30/53/44 
f 37/75/51 38/76/52 32/58/46 31/57/45 
f 38/77/52 39/78/53 33/62/47 32/61/46 
f 39/78/53 40/79/54 34/65/48 33/62/47 
f 40/80/54 41/81/55 35/68/49 34/67/48 
f 41/82/55 36/73/50 30/53/44 35/71/49 
f 42/83/56 43/84/57 37/85/51 36/86/50 
f 43/87/57 44/88/58 38/76/52 37/75/51 
f 44/89/58 45/90/59 39/91/53 38/92/52 
f 45/90/59 46/93/60 40/94/54 39/91/53 
f 46/95/60 47/96/61 41/81/55 40/80/54 
f 47/97/61 42/83/56 36/86/50 41/98/55 
f 42/99/56 48/100/62 43/101/57 
f 43/101/57 48/100/62 44/102/58 
f 44/102/58 48/100/62 45/103/59 
f 45/103/59 48/100/62 46/104/60 
f 46/104/60 48/100/62 47/105/61 
f 47/105/61 48/100/62 42/99/56 
f 49/106/37 50/107/38 51/108/39 
f 49/106/37 51/108/39 52/109/40 
f 49/106/37 52/109/40 53/110/41 
f 49/106/37 53/110/41 54/111/42 
f 49/106/37 54/111/42 55/112/43 
f 49/106/37 55/112/43 50/107/38 
f 56/113/44 57/114/45 51/115/39 50/116/38 
f 57/117/45 58/118/46 52/119/40 51/120/39 
f 58/121/46 59/122/47 53/123/41 52/124/40 
f 59/122/47 60/125/48 54/126/42 53/123/41 
f 60/127/48 61/128/49 55/129/43 54/130/42 
f 61/131/49 56/113/44 50/116/38 55/132/43 
f 62/133/50 63/134/51 57/114/45 56/113/44 
f 63/135/51 64/136/52 58/118/46 57/117/45 
f 64/137/52 65/138/53 59/122/47 58/121/46 
f 65/138/53 66/139/54 60/125/48 59/122/47 
f 66/140/54 67/141/55 61/128/49 60/127/48 
f 67/142/55 62/133/50 56/113/44 61/131/49 
f 68/143/56 69/144/57 63/145/51 62/146/50 
f 69/147/57 70/148/58 64/136/52 63/135/51 
f 70/149/58 71/150/59 65/151/53 64/152/52 
f 71/150/59 72/153/60 66/154/54 65/151/53 
f 72/155/60 73/156/61 67/141/55 66/140/54 
f 73/157/61 68/143/56 62/146/50 67/158/55 
f 68/159/56 74/160/62 69/161/57 
f 69/161/57 74/160/62 70/162/58 
f 70/162/58 74/160/62 71/163/59 
f 71/163/59 74/160/62 72/164/60 
f 72/164/60 74/160/62 73/165/61 
f 73/165/61 74/160/62 68/159/56 
s 2
f 10/36/1 22/35/1 8/19/18 
f 2/2/1 15/18/17 3/3/2 
f 15/18/17 10/36/1 8/19/18 
f 15/18/17 16/20/19 3/3/2 
s 64
f 3/16/15 7/166/63 4/167/64 6/168/65 
s 16
f 8/8/7 21/31/66 9/9/8 
s 64
f 3/16/15 6/168/65 14/17/16 
s 16
f 8/8/7 22/32/67 21/31/66 
# 44 polygons - 48 triangles

