# 3ds Max Wavefront OBJ Exporter v0.97b - (c)2007 guruware
# File Created: 14.12.2011 14:27:58

mtllib AntiAirTurret3.mtl

#
# object Box12
#

v  14.8217 1.1650 -9.0240
v  14.8217 0.2616 -9.9273
v  15.1550 0.2616 -9.9273
v  15.1550 1.1650 -9.0240
v  14.8217 0.8639 -10.9224
v  14.8217 1.7673 -10.0191
v  15.1550 1.7673 -10.0191
v  15.1550 0.8639 -10.9224
v  15.6023 0.6019 -10.8178
v  15.6023 1.6626 -9.7571
v  15.6023 1.4269 -9.5214
v  15.6023 0.3662 -10.5821
v  14.8217 0.8776 -10.5907
v  15.1550 0.8776 -10.5907
v  15.1550 0.5696 -10.2590
v  14.8217 0.5696 -10.2590
v  14.3468 1.6626 -9.7571
v  14.3468 0.6019 -10.8178
v  14.3468 0.3662 -10.5821
v  14.3468 1.4269 -9.5214
v  15.1550 1.7810 -9.6874
v  14.8217 1.7810 -9.6874
v  14.8217 1.4730 -9.3557
v  15.1550 1.4730 -9.3557
v  15.4984 0.0019 -9.9993
v  15.3520 0.0019 -10.3529
v  15.3520 1.0019 -10.3529
v  15.4984 1.0019 -9.9993
v  14.9984 0.0019 -10.4993
v  14.9984 1.0019 -10.4993
v  14.6449 0.0019 -10.3529
v  14.6449 1.0019 -10.3529
v  14.4984 0.0019 -9.9993
v  14.4984 1.0019 -9.9993
v  14.6449 0.0019 -9.6458
v  14.6449 1.0019 -9.6458
v  14.9984 0.0019 -9.4993
v  14.9984 1.0019 -9.4993
v  15.3520 0.0019 -9.6458
v  15.3520 1.0019 -9.6458
v  14.4883 1.1912 -9.2857
v  14.4883 0.1305 -10.3464
v  15.4883 0.1305 -10.3464
v  15.4883 1.1912 -9.2857
v  14.4883 0.8376 -11.0535
v  14.4883 1.8983 -9.9928
v  15.4883 1.8983 -9.9928
v  15.4883 0.8376 -11.0535
v  14.8943 1.8456 -9.6025
v  14.8581 1.7837 -9.5406
v  14.8581 1.0766 -10.2477
v  14.8943 1.1385 -10.3096
v  14.7706 1.7581 -9.5150
v  14.7706 1.0510 -10.2221
v  14.6831 1.7837 -9.5406
v  14.6831 1.0766 -10.2477
v  14.6468 1.8456 -9.6025
v  14.6468 1.1385 -10.3096
v  14.6831 1.9075 -9.6644
v  14.6831 1.2004 -10.3715
v  14.7706 1.9331 -9.6900
v  14.7706 1.2260 -10.3971
v  14.8581 1.9075 -9.6644
v  14.8581 1.2004 -10.3715
v  15.3332 1.8456 -9.6025
v  15.2970 1.7837 -9.5406
v  15.2970 1.0766 -10.2477
v  15.3332 1.1385 -10.3096
v  15.2094 1.7581 -9.5150
v  15.2094 1.0510 -10.2221
v  15.1219 1.7837 -9.5406
v  15.1219 1.0766 -10.2477
v  15.0857 1.8456 -9.6025
v  15.0857 1.1385 -10.3096
v  15.1219 1.9075 -9.6644
v  15.1219 1.2004 -10.3715
v  15.2094 1.9331 -9.6900
v  15.2094 1.2260 -10.3971
v  15.2970 1.9075 -9.6644
v  15.2970 1.2004 -10.3715
v  14.8943 1.4574 -9.2630
v  14.8581 1.3955 -9.2011
v  14.8581 0.6884 -9.9082
v  14.8943 0.7503 -9.9701
v  14.7706 1.3699 -9.1755
v  14.7706 0.6628 -9.8826
v  14.6831 1.3955 -9.2011
v  14.6831 0.6884 -9.9082
v  14.6468 1.4574 -9.2630
v  14.6468 0.7503 -9.9701
v  14.6831 1.5193 -9.3249
v  14.6831 0.8122 -10.0320
v  14.7706 1.5449 -9.3505
v  14.7706 0.8378 -10.0576
v  14.8581 1.5193 -9.3249
v  14.8581 0.8122 -10.0320
v  15.3332 1.4574 -9.2630
v  15.2970 1.3955 -9.2011
v  15.2970 0.6884 -9.9082
v  15.3332 0.7503 -9.9701
v  15.2094 1.3699 -9.1755
v  15.2094 0.6628 -9.8826
v  15.1219 1.3955 -9.2011
v  15.1219 0.6884 -9.9082
v  15.0857 1.4574 -9.2630
v  15.0857 0.7503 -9.9701
v  15.1219 1.5193 -9.3249
v  15.1219 0.8122 -10.0320
v  15.2094 1.5449 -9.3505
v  15.2094 0.8378 -10.0576
v  15.2970 1.5193 -9.3249
v  15.2970 0.8122 -10.0320
# 112 vertices

vn -0.2307 -0.6880 0.6880
vn -0.3243 -0.6689 0.6689
vn 0.3243 -0.6689 0.6689
vn 0.2307 -0.6880 0.6880
vn 0.1191 0.7021 -0.7021
vn -0.1191 0.7021 -0.7021
vn 0.9865 0.1159 -0.1159
vn 0.9865 -0.1159 0.1159
vn 0.2550 -0.8859 -0.3876
vn -0.2657 -0.8823 -0.3885
vn -0.3689 -0.6628 -0.6516
vn 0.3605 -0.6619 -0.6572
vn -0.9799 0.1410 -0.1410
vn -0.9799 -0.1410 0.1410
vn 0.0635 0.9025 0.4261
vn -0.0573 0.9036 0.4246
vn -0.1753 0.7068 0.6854
vn 0.1809 0.7078 0.6829
vn 1.0000 -0.0000 0.0000
vn 0.7071 0.0000 -0.7071
vn -0.0000 0.0000 -1.0000
vn -0.7071 0.0000 -0.7071
vn -1.0000 0.0000 0.0000
vn -1.0000 -0.0000 0.0000
vn -0.7071 0.0000 0.7071
vn 0.0000 0.0000 1.0000
vn 0.7071 -0.0000 0.7071
vn 0.7071 0.0000 0.7071
vn 0.0000 -1.0000 0.0000
vn -0.0000 -1.0000 0.0000
vn -0.0000 -1.0000 -0.0000
vn 0.0000 -1.0000 -0.0000
vn -0.5213 -0.6034 0.6034
vn 0.5213 -0.6034 0.6034
vn 0.2171 0.6902 -0.6902
vn -0.2171 0.6902 -0.6902
vn 0.6185 -0.4813 -0.6211
vn 0.6009 -0.6359 -0.4843
vn -0.6408 -0.4804 -0.5988
vn -0.6239 -0.6141 -0.4833
vn 0.3128 0.6476 0.6948
vn 0.2878 0.7060 0.6471
vn -0.2967 0.6464 0.7030
vn -0.2727 0.7131 0.6459
vn 0.7071 -0.5000 0.5000
vn 1.0000 0.0000 -0.0000
vn 0.0000 -0.7071 0.7071
vn -0.7071 -0.5000 0.5000
vn -1.0000 0.0000 -0.0000
vn -0.7071 0.5000 -0.5000
vn 0.0000 0.7071 -0.7071
vn 0.7071 0.5000 -0.5000
vn -0.0000 0.7071 0.7071
vn 0.0000 0.7071 0.7071
vn 0.9463 0.2287 -0.2287
vn 0.9463 -0.2287 0.2287
vn 0.0345 -0.9985 0.0413
vn -0.0345 -0.9985 0.0413
vn -0.3512 -0.6861 -0.6371
vn 0.3512 -0.6861 -0.6371
vn -0.9205 0.2763 -0.2763
vn -0.9205 -0.2763 0.2763
vn -0.1793 0.9829 -0.0407
vn 0.1793 0.9829 -0.0407
vn -0.1770 0.7212 0.6697
vn 0.1770 0.7212 0.6697
vn 0.4575 -0.8516 -0.2559
vn 0.6809 -0.3940 -0.6174
vn -0.6949 -0.4099 -0.5909
vn -0.4760 -0.8368 -0.2705
vn 0.0339 0.9201 0.3903
vn 0.3805 0.6203 0.6858
vn -0.3715 0.6126 0.6976
vn -0.0332 0.9204 0.3897
# 74 vertex normals

vt 0.3029 0.1272 0.0000
vt 0.0784 0.1272 0.0000
vt 0.0784 0.0686 0.0000
vt 0.3029 0.0686 0.0000
vt 0.0296 0.2661 0.0000
vt 0.2541 0.2661 0.0000
vt 0.2541 0.3247 0.0000
vt 0.0296 0.3247 0.0000
vt 0.3188 0.2661 0.0000
vt 0.5825 0.2661 0.0000
vt 0.5825 0.3247 0.0000
vt 0.3188 0.3247 0.0000
vt 0.0935 0.6910 0.0000
vt 0.1520 0.6910 0.0000
vt 0.1520 0.7705 0.0000
vt 0.0935 0.7705 0.0000
vt 0.3247 0.0686 0.0000
vt 0.5884 0.0686 0.0000
vt 0.5884 0.1272 0.0000
vt 0.3247 0.1272 0.0000
vt 0.0886 0.4577 0.0000
vt 0.1472 0.4577 0.0000
vt 0.1472 0.5372 0.0000
vt 0.0886 0.5372 0.0000
vt 0.6102 0.2694 0.0000
vt 0.6162 0.2076 0.0000
vt 0.7911 0.2244 0.0000
vt 0.7852 0.2863 0.0000
vt 0.0100 0.9389 0.0000
vt 0.0140 0.8718 0.0000
vt 0.1894 0.8822 0.0000
vt 0.1855 0.9493 0.0000
vt 0.9887 0.2076 0.0000
vt 0.9900 0.2748 0.0000
vt 0.8143 0.2783 0.0000
vt 0.8129 0.2111 0.0000
vt 0.6101 0.1337 0.0000
vt 0.6161 0.0719 0.0000
vt 0.7911 0.0887 0.0000
vt 0.7851 0.1506 0.0000
vt 0.6221 0.0100 0.0000
vt 0.7970 0.0269 0.0000
vt 0.6193 0.4151 0.0000
vt 0.6154 0.4822 0.0000
vt 0.4400 0.4723 0.0000
vt 0.4438 0.4051 0.0000
vt 0.6128 0.5297 0.0000
vt 0.4373 0.5197 0.0000
vt 0.6043 0.3313 0.0000
vt 0.7792 0.3481 0.0000
vt 0.2524 0.5195 0.0000
vt 0.2531 0.4522 0.0000
vt 0.3011 0.4051 0.0000
vt 0.3668 0.5681 0.0000
vt 0.3684 0.4058 0.0000
vt 0.4155 0.4538 0.0000
vt 0.4148 0.5210 0.0000
vt 0.2995 0.5675 0.0000
vt 0.2736 0.1858 0.0000
vt 0.0100 0.1858 0.0000
vt 0.0100 0.0100 0.0000
vt 0.2736 0.0100 0.0000
vt 0.0100 0.2076 0.0000
vt 0.2736 0.2076 0.0000
vt 0.2736 0.3833 0.0000
vt 0.0100 0.3833 0.0000
vt 0.0100 0.7556 0.0000
vt 0.0100 0.6970 0.0000
vt 0.2307 0.7556 0.0000
vt 0.2307 0.6970 0.0000
vt 0.0100 0.5223 0.0000
vt 0.0100 0.4637 0.0000
vt 0.2307 0.5223 0.0000
vt 0.2307 0.4637 0.0000
vt 0.8106 0.5741 0.0000
vt 0.8106 0.5895 0.0000
vt 0.6348 0.5895 0.0000
vt 0.6348 0.5741 0.0000
vt 0.8106 0.7164 0.0000
vt 0.8106 0.7318 0.0000
vt 0.6348 0.7318 0.0000
vt 0.6348 0.7164 0.0000
vt 0.8106 0.7472 0.0000
vt 0.6348 0.7472 0.0000
vt 0.4373 0.6421 0.0000
vt 0.4373 0.6267 0.0000
vt 0.6130 0.6267 0.0000
vt 0.6130 0.6421 0.0000
vt 0.4373 0.6113 0.0000
vt 0.6130 0.6113 0.0000
vt 0.8106 0.7690 0.0000
vt 0.8106 0.7843 0.0000
vt 0.6348 0.7843 0.0000
vt 0.6348 0.7690 0.0000
vt 0.8106 0.7997 0.0000
vt 0.6348 0.7997 0.0000
vt 0.8106 0.5587 0.0000
vt 0.6348 0.5587 0.0000
vt 0.1320 0.6837 0.0000
vt 0.1154 0.6835 0.0000
vt 0.1037 0.6717 0.0000
vt 0.1440 0.6554 0.0000
vt 0.1039 0.6550 0.0000
vt 0.1157 0.6433 0.0000
vt 0.1324 0.6435 0.0000
vt 0.1439 0.6720 0.0000
vt 0.3188 0.2076 0.0000
vt 0.5825 0.2076 0.0000
vt 0.5825 0.3833 0.0000
vt 0.3188 0.3833 0.0000
vt 0.0262 0.8071 0.0000
vt 0.0848 0.8071 0.0000
vt 0.0848 0.8500 0.0000
vt 0.0262 0.8500 0.0000
vt 0.1520 0.8500 0.0000
vt 0.0935 0.8500 0.0000
vt 0.3247 0.0100 0.0000
vt 0.5884 0.0100 0.0000
vt 0.5884 0.1858 0.0000
vt 0.3247 0.1858 0.0000
vt 0.2970 0.2661 0.0000
vt 0.2970 0.3247 0.0000
vt 0.1472 0.6167 0.0000
vt 0.0886 0.6167 0.0000
vt 0.0349 0.6385 0.0000
vt 0.0935 0.6515 0.0000
vt 0.2665 0.6675 0.0000
vt 0.2524 0.5899 0.0000
vt 0.3465 0.6106 0.0000
vt 0.3731 0.6674 0.0000
vt 0.8619 0.0784 0.0000
vt 0.8261 0.0100 0.0000
vt 0.9056 0.0129 0.0000
vt 0.9205 0.0784 0.0000
vt 0.1520 0.6515 0.0000
vt 0.2106 0.6385 0.0000
vt 0.0300 0.4051 0.0000
vt 0.0886 0.4181 0.0000
vt 0.0300 0.5809 0.0000
vt 0.2058 0.5809 0.0000
vt 0.1472 0.4181 0.0000
vt 0.2058 0.4051 0.0000
vt 0.6130 0.6792 0.0000
vt 0.6130 0.6946 0.0000
vt 0.4373 0.6946 0.0000
vt 0.4373 0.6792 0.0000
vt 0.6130 0.7164 0.0000
vt 0.6130 0.7318 0.0000
vt 0.4373 0.7318 0.0000
vt 0.4373 0.7164 0.0000
vt 0.6130 0.7472 0.0000
vt 0.4373 0.7472 0.0000
vt 0.4373 0.5895 0.0000
vt 0.4373 0.5741 0.0000
vt 0.6130 0.5741 0.0000
vt 0.6130 0.5895 0.0000
vt 0.4373 0.5587 0.0000
vt 0.6130 0.5587 0.0000
vt 0.6130 0.8215 0.0000
vt 0.6130 0.8369 0.0000
vt 0.4373 0.8369 0.0000
vt 0.4373 0.8215 0.0000
vt 0.6130 0.8523 0.0000
vt 0.4373 0.8523 0.0000
vt 0.6130 0.6638 0.0000
vt 0.4373 0.6638 0.0000
vt 0.0567 0.1199 0.0000
vt 0.0401 0.1197 0.0000
vt 0.0284 0.1078 0.0000
vt 0.0688 0.0916 0.0000
vt 0.0286 0.0912 0.0000
vt 0.0405 0.0795 0.0000
vt 0.0571 0.0797 0.0000
vt 0.0686 0.1082 0.0000
vt 0.8241 0.4730 0.0000
vt 0.8241 0.4884 0.0000
vt 0.6483 0.4884 0.0000
vt 0.6483 0.4730 0.0000
vt 0.8106 0.6638 0.0000
vt 0.8106 0.6792 0.0000
vt 0.6348 0.6792 0.0000
vt 0.6348 0.6638 0.0000
vt 0.8106 0.6946 0.0000
vt 0.6348 0.6946 0.0000
vt 0.8129 0.3309 0.0000
vt 0.8129 0.3155 0.0000
vt 0.9887 0.3155 0.0000
vt 0.9887 0.3309 0.0000
vt 0.8129 0.3001 0.0000
vt 0.9887 0.3001 0.0000
vt 0.8106 0.8215 0.0000
vt 0.8106 0.8369 0.0000
vt 0.6348 0.8369 0.0000
vt 0.6348 0.8215 0.0000
vt 0.8106 0.8523 0.0000
vt 0.6348 0.8523 0.0000
vt 0.8241 0.4577 0.0000
vt 0.6483 0.4577 0.0000
vt 0.1274 0.4504 0.0000
vt 0.1108 0.4502 0.0000
vt 0.0991 0.4383 0.0000
vt 0.1395 0.4221 0.0000
vt 0.0993 0.4217 0.0000
vt 0.1112 0.4100 0.0000
vt 0.1278 0.4102 0.0000
vt 0.1393 0.4387 0.0000
vt 0.8106 0.6267 0.0000
vt 0.8106 0.6421 0.0000
vt 0.6348 0.6421 0.0000
vt 0.6348 0.6267 0.0000
vt 0.6130 0.7690 0.0000
vt 0.6130 0.7843 0.0000
vt 0.4373 0.7843 0.0000
vt 0.4373 0.7690 0.0000
vt 0.6130 0.7997 0.0000
vt 0.4373 0.7997 0.0000
vt 0.6483 0.4359 0.0000
vt 0.6483 0.4205 0.0000
vt 0.8241 0.4205 0.0000
vt 0.8241 0.4359 0.0000
vt 0.6483 0.4051 0.0000
vt 0.8241 0.4051 0.0000
vt 0.6130 0.8741 0.0000
vt 0.6130 0.8894 0.0000
vt 0.4373 0.8894 0.0000
vt 0.4373 0.8741 0.0000
vt 0.6130 0.9048 0.0000
vt 0.4373 0.9048 0.0000
vt 0.8106 0.6113 0.0000
vt 0.6348 0.6113 0.0000
vt 0.2186 0.8500 0.0000
vt 0.2020 0.8498 0.0000
vt 0.1903 0.8380 0.0000
vt 0.2307 0.8217 0.0000
vt 0.1905 0.8213 0.0000
vt 0.2024 0.8097 0.0000
vt 0.2190 0.8098 0.0000
vt 0.2305 0.8383 0.0000
# 238 texture coords

g Box12
usemtl Material__11
s 2
f 1/1/1 2/2/2 3/3/3 4/4/4 
s 4
f 5/5/5 6/6/5 7/7/6 8/8/6 
s 8
f 9/9/7 10/10/7 11/11/8 12/12/8 
s 16
f 13/13/9 14/14/10 15/15/11 16/16/12 
s 32
f 17/17/13 18/18/13 19/19/14 20/20/14 
s 64
f 21/21/15 22/22/16 23/23/17 24/24/18 
s 8
f 25/25/19 26/26/20 27/27/20 28/28/19 
f 26/29/20 29/30/21 30/31/21 27/32/20 
f 29/33/21 31/34/22 32/35/22 30/36/21 
f 31/37/22 33/38/23 34/39/24 32/40/22 
f 33/38/23 35/41/25 36/42/25 34/39/24 
f 35/43/25 37/44/26 38/45/26 36/46/25 
f 37/44/26 39/47/27 40/48/28 38/45/26 
f 39/49/27 25/25/19 28/28/19 40/50/28 
s 1
f 37/51/29 35/52/30 33/53/31 25/54/32 
f 33/53/31 31/55/31 29/56/31 25/54/32 
f 29/56/31 26/57/32 25/54/32 
f 39/58/29 37/51/29 25/54/32 
s 2
f 41/59/33 42/60/33 2/2/2 1/1/1 
f 43/61/34 44/62/34 4/4/4 3/3/3 
s 4
f 45/63/35 46/64/35 6/6/5 5/5/5 
f 47/65/36 48/66/36 8/8/6 7/7/6 
s 16
f 19/67/37 18/68/38 13/13/9 16/16/12 
f 12/69/39 15/15/11 14/14/10 9/70/40 
s 64
f 11/71/41 10/72/42 21/21/15 24/24/18 
f 20/73/43 23/23/17 22/22/16 17/74/44 
s 8
f 49/75/19 50/76/45 51/77/45 52/78/46 
f 50/79/45 53/80/47 54/81/47 51/82/45 
f 53/80/47 55/83/48 56/84/48 54/81/47 
f 55/85/48 57/86/24 58/87/49 56/88/48 
f 57/86/24 59/89/50 60/90/50 58/87/49 
f 59/91/50 61/92/51 62/93/51 60/94/50 
f 61/92/51 63/95/52 64/96/52 62/93/51 
f 63/97/52 49/75/19 52/78/46 64/98/52 
s 1
f 61/99/53 59/100/54 57/101/54 49/102/53 
f 57/101/54 55/103/53 53/104/54 49/102/53 
f 53/104/54 50/105/54 49/102/53 
f 63/106/53 61/99/53 49/102/53 
s 8
f 48/107/55 47/108/55 10/10/7 9/9/7 
f 44/109/56 43/110/56 12/12/8 11/11/8 
s 16
f 5/111/57 8/112/58 14/113/10 13/114/9 
f 3/115/59 2/116/60 16/16/12 15/15/11 
s 32
f 46/117/61 45/118/61 18/18/13 17/17/13 
f 42/119/62 41/120/62 20/20/14 19/19/14 
s 64
f 7/7/63 6/6/64 22/121/16 21/122/15 
f 1/123/65 4/124/66 24/24/18 23/23/17 
s 16
f 45/125/67 5/126/57 13/13/9 18/68/38 
f 16/127/12 2/128/60 42/129/68 19/130/37 
f 43/131/69 3/132/59 15/133/11 12/134/39 
f 14/14/10 8/135/58 48/136/70 9/70/40 
s 64
f 47/137/71 7/138/63 21/21/15 10/72/42 
f 24/24/18 4/124/66 44/139/72 11/71/41 
f 41/140/73 1/123/65 23/23/17 20/73/43 
f 22/22/16 6/141/64 46/142/74 17/74/44 
s 8
f 65/143/19 66/144/45 67/145/45 68/146/46 
f 66/147/45 69/148/47 70/149/47 67/150/45 
f 69/148/47 71/151/48 72/152/48 70/149/47 
f 71/153/48 73/154/24 74/155/49 72/156/48 
f 73/154/24 75/157/50 76/158/50 74/155/49 
f 75/159/50 77/160/51 78/161/51 76/162/50 
f 77/160/51 79/163/52 80/164/52 78/161/51 
f 79/165/52 65/143/19 68/146/46 80/166/52 
s 1
f 77/167/53 75/168/54 73/169/54 65/170/53 
f 73/169/54 71/171/54 69/172/53 65/170/53 
f 69/172/53 66/173/53 65/170/53 
f 79/174/53 77/167/53 65/170/53 
s 8
f 81/175/19 82/176/45 83/177/45 84/178/46 
f 82/179/45 85/180/47 86/181/47 83/182/45 
f 85/180/47 87/183/48 88/184/48 86/181/47 
f 87/185/48 89/186/24 90/187/49 88/188/48 
f 89/186/24 91/189/50 92/190/50 90/187/49 
f 91/191/50 93/192/51 94/193/51 92/194/50 
f 93/192/51 95/195/52 96/196/52 94/193/51 
f 95/197/52 81/175/19 84/178/46 96/198/52 
s 1
f 93/199/54 91/200/54 89/201/54 81/202/53 
f 89/201/54 87/203/54 85/204/54 81/202/53 
f 85/204/54 82/205/53 81/202/53 
f 95/206/53 93/199/54 81/202/53 
s 8
f 97/207/19 98/208/45 99/209/45 100/210/46 
f 98/211/45 101/212/47 102/213/47 99/214/45 
f 101/212/47 103/215/48 104/216/48 102/213/47 
f 103/217/48 105/218/24 106/219/49 104/220/48 
f 105/218/24 107/221/50 108/222/50 106/219/49 
f 107/223/50 109/224/51 110/225/51 108/226/50 
f 109/224/51 111/227/52 112/228/52 110/225/51 
f 111/229/52 97/207/19 100/210/46 112/230/52 
s 1
f 109/231/54 107/232/54 105/233/54 97/234/53 
f 105/233/54 103/235/53 101/236/54 97/234/53 
f 101/236/54 98/237/54 97/234/53 
f 111/238/53 109/231/54 97/234/53 
# 80 polygons - 10 triangles

