# 3ds Max Wavefront OBJ Exporter v0.97b - (c)2007 guruware
# File Created: 14.12.2011 14:25:57

mtllib AntiAirTank3.mtl

#
# object Box21
#

v  0.3333 0.0000 -10.3333
v  0.3333 0.0000 -9.6667
v  -0.3333 0.0000 -9.6667
v  -0.3333 0.0000 -10.3333
v  -0.3222 1.6309 -10.4805
v  -0.3222 1.7850 -10.1300
v  0.3222 1.7850 -10.1300
v  0.3222 1.6309 -10.4805
v  0.3333 0.0000 -9.0000
v  0.3333 0.2797 -9.0000
v  -0.3333 0.2797 -9.0000
v  -0.3333 0.0000 -9.0000
v  2.0023 0.0036 -10.3326
v  2.0023 0.6659 -10.9993
v  2.0023 0.6659 -8.9993
v  2.0023 0.0036 -9.6659
v  -0.3333 0.0000 -11.0000
v  -0.3333 0.2797 -11.0000
v  0.3333 0.2797 -11.0000
v  0.3333 0.0000 -11.0000
v  -1.9878 0.0000 -9.6667
v  -1.9878 0.6623 -9.0000
v  -1.9878 0.6623 -11.0000
v  -1.9878 0.0000 -10.3333
v  0.5204 1.4076 -10.5602
v  0.5204 1.5618 -9.9394
v  -0.5204 1.5618 -9.9394
v  1.0000 0.0000 -10.3333
v  1.0000 0.0000 -11.0000
v  1.0000 0.6623 -11.0000
v  1.0000 0.6623 -9.0000
v  1.0000 0.0000 -9.0000
v  1.0000 0.0000 -9.6667
v  -1.0000 0.0000 -9.6667
v  -1.0000 0.0000 -9.0000
v  -1.0000 0.6623 -9.0000
v  -1.0000 0.6623 -11.0000
v  -1.0000 0.0000 -11.0000
v  -1.0000 0.0000 -10.3333
v  -0.5204 1.4076 -10.5602
v  -0.3366 1.8436 -9.1314
v  -0.3729 1.7817 -9.0695
v  -0.3729 1.0746 -9.7766
v  -0.3366 1.1365 -9.8385
v  -0.4604 1.7561 -9.0439
v  -0.4604 1.0490 -9.7510
v  -0.5479 1.7817 -9.0695
v  -0.5479 1.0746 -9.7766
v  -0.5841 1.8436 -9.1314
v  -0.5841 1.1365 -9.8385
v  -0.5479 1.9055 -9.1933
v  -0.5479 1.1983 -9.9004
v  -0.4604 1.9311 -9.2189
v  -0.4604 1.2240 -9.9260
v  -0.3729 1.9055 -9.1933
v  -0.3729 1.1983 -9.9004
v  0.5459 1.8436 -9.1314
v  0.5096 1.7817 -9.0695
v  0.5096 1.0746 -9.7766
v  0.5459 1.1365 -9.8385
v  0.4221 1.7561 -9.0439
v  0.4221 1.0490 -9.7510
v  0.3346 1.7817 -9.0695
v  0.3346 1.0746 -9.7766
v  0.2983 1.8436 -9.1314
v  0.2983 1.1365 -9.8385
v  0.3346 1.9055 -9.1933
v  0.3346 1.1983 -9.9004
v  0.4221 1.9311 -9.2189
v  0.4221 1.2240 -9.9260
v  0.5096 1.9055 -9.1933
v  0.5096 1.1983 -9.9004
v  0.1071 2.1249 -9.4096
v  0.0708 2.0630 -9.3478
v  0.0708 1.3559 -10.0549
v  0.1071 1.4178 -10.1167
v  -0.0167 2.0374 -9.3221
v  -0.0167 1.3303 -10.0292
v  -0.1042 2.0630 -9.3478
v  -0.1042 1.3559 -10.0549
v  -0.1404 2.1249 -9.4096
v  -0.1404 1.4178 -10.1167
v  -0.1042 2.1868 -9.4715
v  -0.1042 1.4797 -10.1786
v  -0.0167 2.2124 -9.4971
v  -0.0167 1.5053 -10.2042
v  0.0708 2.1868 -9.4715
v  0.0708 1.4797 -10.1786
# 88 vertices

vn 0.0000 -1.0000 -0.0000
vn 0.0000 0.9154 -0.4026
vn 0.0000 0.0000 1.0000
vn 1.0000 0.0000 -0.0000
vn 0.0000 0.0000 -1.0000
vn -1.0000 0.0000 -0.0000
vn -0.0785 0.3734 -0.9243
vn 0.0785 0.3734 -0.9243
vn 0.5475 0.5735 -0.6094
vn 0.1310 0.5983 0.7905
vn 0.5930 0.6657 0.4531
vn -0.5930 0.6657 0.4531
vn -0.5475 0.5735 -0.6094
vn -0.1041 0.7567 0.6454
vn 0.1041 0.7567 0.6454
vn -0.3125 0.6238 -0.7164
vn 0.3125 0.6238 -0.7164
vn -0.1310 0.5983 0.7905
vn 0.0036 -1.0000 0.0000
vn 0.0031 -0.7094 -0.7048
vn -0.0036 1.0000 -0.0000
vn 0.0020 -0.7094 0.7048
vn 0.0000 -0.7094 0.7048
vn 0.0000 1.0000 -0.0000
vn 0.0000 -0.7094 -0.7048
vn 0.7071 -0.5000 0.5000
vn 0.0000 -0.7071 0.7071
vn -0.0000 -0.7071 0.7071
vn -0.7071 -0.5000 0.5000
vn -1.0000 -0.0000 0.0000
vn -1.0000 0.0000 0.0000
vn -0.7071 0.5000 -0.5000
vn 0.0000 0.7071 -0.7071
vn 0.7071 0.5000 -0.5000
vn -0.0000 0.7071 0.7071
vn 0.0000 0.7071 0.7071
vn 0.0000 0.3364 -0.9417
vn -0.7569 0.6230 -0.1977
vn 0.0000 0.6493 0.7605
vn 0.7569 0.6230 -0.1977
# 40 vertex normals

vt 0.2439 0.1970 0.0000
vt 0.2439 0.1035 0.0000
vt 0.3374 0.1035 0.0000
vt 0.3374 0.1970 0.0000
vt 0.0100 0.9633 0.0000
vt 0.0100 0.9097 0.0000
vt 0.1003 0.9097 0.0000
vt 0.1003 0.9633 0.0000
vt 0.1034 0.5641 0.0000
vt 0.1034 0.5249 0.0000
vt 0.1969 0.5249 0.0000
vt 0.1969 0.5641 0.0000
vt 0.4072 0.7919 0.0000
vt 0.3138 0.6991 0.0000
vt 0.5941 0.6991 0.0000
vt 0.5007 0.7919 0.0000
vt 0.6862 0.2386 0.0000
vt 0.6862 0.1994 0.0000
vt 0.7797 0.1994 0.0000
vt 0.7797 0.2386 0.0000
vt 0.1034 0.8862 0.0000
vt 0.0100 0.7934 0.0000
vt 0.2903 0.7934 0.0000
vt 0.1969 0.8862 0.0000
vt 0.2439 0.2904 0.0000
vt 0.3374 0.2904 0.0000
vt 0.3374 0.0101 0.0000
vt 0.2439 0.0101 0.0000
vt 0.8059 0.0413 0.0000
vt 0.0772 0.3452 0.0000
vt 0.2231 0.3452 0.0000
vt 0.9900 0.1028 0.0000
vt 0.8966 0.1028 0.0000
vt 0.8966 0.0100 0.0000
vt 0.7110 0.6991 0.0000
vt 0.7110 0.7919 0.0000
vt 0.6176 0.7919 0.0000
vt 0.7190 0.6201 0.0000
vt 0.6255 0.6201 0.0000
vt 0.6255 0.5273 0.0000
vt 0.4072 0.8154 0.0000
vt 0.4072 0.9082 0.0000
vt 0.3138 0.9082 0.0000
vt 0.1505 0.1970 0.0000
vt 0.1505 0.1035 0.0000
vt 0.4308 0.1035 0.0000
vt 0.4308 0.1970 0.0000
vt 0.2301 0.6473 0.0000
vt 0.0100 0.7690 0.0000
vt 0.1428 0.6271 0.0000
vt 0.4603 0.3535 0.0000
vt 0.5928 0.4956 0.0000
vt 0.3729 0.3735 0.0000
vt 0.0100 0.5641 0.0000
vt 0.0100 0.4713 0.0000
vt 0.2903 0.4713 0.0000
vt 0.2903 0.5641 0.0000
vt 0.5928 0.2386 0.0000
vt 0.5928 0.1458 0.0000
vt 0.8731 0.1458 0.0000
vt 0.8731 0.2386 0.0000
vt 0.1505 0.2904 0.0000
vt 0.4308 0.2904 0.0000
vt 0.4308 0.0101 0.0000
vt 0.1505 0.0101 0.0000
vt 0.6600 0.0413 0.0000
vt 0.0100 0.1969 0.0000
vt 0.0100 0.1034 0.0000
vt 0.0100 0.2903 0.0000
vt 0.5942 0.6678 0.0000
vt 0.3139 0.6678 0.0000
vt 0.3138 0.5273 0.0000
vt 0.5941 0.5273 0.0000
vt 0.0100 0.0100 0.0000
vt 0.5693 0.1035 0.0000
vt 0.5693 0.1970 0.0000
vt 0.5693 0.0101 0.0000
vt 0.6241 0.3139 0.0000
vt 0.9045 0.3139 0.0000
vt 0.9045 0.4524 0.0000
vt 0.6241 0.4524 0.0000
vt 0.5693 0.2904 0.0000
vt 0.4312 0.8897 0.0000
vt 0.4309 0.8765 0.0000
vt 0.5710 0.8737 0.0000
vt 0.5713 0.8869 0.0000
vt 0.4307 0.8671 0.0000
vt 0.5708 0.8643 0.0000
vt 0.4312 0.8408 0.0000
vt 0.4309 0.8275 0.0000
vt 0.5710 0.8247 0.0000
vt 0.5713 0.8380 0.0000
vt 0.4307 0.8182 0.0000
vt 0.5708 0.8154 0.0000
vt 0.7667 0.8311 0.0000
vt 0.7664 0.8178 0.0000
vt 0.9066 0.8154 0.0000
vt 0.9068 0.8286 0.0000
vt 0.7349 0.7245 0.0000
vt 0.7347 0.7113 0.0000
vt 0.8748 0.7085 0.0000
vt 0.8751 0.7217 0.0000
vt 0.7345 0.7019 0.0000
vt 0.8746 0.6991 0.0000
vt 0.5950 0.8314 0.0000
vt 0.5947 0.8182 0.0000
vt 0.7349 0.8154 0.0000
vt 0.7352 0.8286 0.0000
vt 0.4822 0.3441 0.0000
vt 0.4713 0.3374 0.0000
vt 0.4687 0.3276 0.0000
vt 0.5021 0.3369 0.0000
vt 0.4759 0.3206 0.0000
vt 0.4887 0.3204 0.0000
vt 0.4996 0.3271 0.0000
vt 0.4949 0.3439 0.0000
vt 0.1242 0.9840 0.0000
vt 0.1240 0.9708 0.0000
vt 0.2641 0.9680 0.0000
vt 0.2644 0.9812 0.0000
vt 0.1238 0.9614 0.0000
vt 0.2639 0.9586 0.0000
vt 0.7429 0.5528 0.0000
vt 0.7426 0.5395 0.0000
vt 0.8827 0.5367 0.0000
vt 0.8830 0.5500 0.0000
vt 0.7424 0.5301 0.0000
vt 0.8826 0.5273 0.0000
vt 0.6028 0.8800 0.0000
vt 0.6026 0.8667 0.0000
vt 0.7427 0.8643 0.0000
vt 0.7429 0.8775 0.0000
vt 0.1242 0.9351 0.0000
vt 0.1240 0.9218 0.0000
vt 0.2641 0.9190 0.0000
vt 0.2644 0.9323 0.0000
vt 0.1238 0.9125 0.0000
vt 0.2639 0.9097 0.0000
vt 0.7427 0.6412 0.0000
vt 0.7424 0.6279 0.0000
vt 0.8826 0.6251 0.0000
vt 0.8828 0.6384 0.0000
vt 0.3138 0.3554 0.0000
vt 0.3139 0.3421 0.0000
vt 0.3234 0.3328 0.0000
vt 0.3364 0.3650 0.0000
vt 0.3367 0.3329 0.0000
vt 0.3460 0.3424 0.0000
vt 0.3459 0.3557 0.0000
vt 0.3231 0.3648 0.0000
vt 0.7349 0.7734 0.0000
vt 0.7347 0.7602 0.0000
vt 0.8748 0.7574 0.0000
vt 0.8751 0.7706 0.0000
vt 0.7345 0.7508 0.0000
vt 0.8746 0.7480 0.0000
vt 0.5932 0.2875 0.0000
vt 0.5929 0.2742 0.0000
vt 0.7331 0.2714 0.0000
vt 0.7334 0.2847 0.0000
vt 0.5928 0.2649 0.0000
vt 0.7329 0.2621 0.0000
vt 0.4309 0.9841 0.0000
vt 0.4307 0.9708 0.0000
vt 0.5709 0.9683 0.0000
vt 0.5711 0.9816 0.0000
vt 0.7429 0.6017 0.0000
vt 0.7426 0.5884 0.0000
vt 0.8827 0.5856 0.0000
vt 0.8830 0.5989 0.0000
vt 0.7424 0.5790 0.0000
vt 0.8826 0.5762 0.0000
vt 0.4310 0.9371 0.0000
vt 0.4307 0.9238 0.0000
vt 0.5708 0.9210 0.0000
vt 0.5711 0.9343 0.0000
vt 0.2794 0.6387 0.0000
vt 0.2662 0.6386 0.0000
vt 0.2569 0.6291 0.0000
vt 0.2890 0.6161 0.0000
vt 0.2570 0.6158 0.0000
vt 0.2665 0.6065 0.0000
vt 0.2797 0.6066 0.0000
vt 0.2889 0.6294 0.0000
vt 0.6878 0.0100 0.0000
vt 0.7781 0.0100 0.0000
vt 0.1708 0.5876 0.0000
vt 0.2204 0.6076 0.0000
vt 0.1050 0.3139 0.0000
vt 0.1953 0.3139 0.0000
vt 0.3827 0.3339 0.0000
vt 0.4324 0.3139 0.0000
vt 0.3138 0.4960 0.0000
vt 0.2890 0.7699 0.0000
# 194 texture coords

g Box21
usemtl Material__21
s 2
f 1/1/1 2/2/1 3/3/1 4/4/1 
s 4
f 5/5/2 6/6/2 7/7/2 8/8/2 
s 8
f 9/9/3 10/10/3 11/11/3 12/12/3 
s 16
f 13/13/4 14/14/4 15/15/4 16/16/4 
s 32
f 17/17/5 18/18/5 19/19/5 20/20/5 
s 64
f 21/21/6 22/22/6 23/23/6 24/24/6 
s 2
f 20/25/1 1/1/1 4/4/1 17/26/1 
f 12/27/1 3/3/1 2/2/1 9/28/1 
s 4
f 19/19/7 18/18/8 25/29/9 
f 11/11/10 26/30/11 27/31/12 
s 16
f 28/32/4 29/33/4 30/34/4 
f 31/35/4 32/36/4 33/37/4 
s 64
f 34/38/6 35/39/6 36/40/6 
f 37/41/6 38/42/6 39/43/6 
s 2
f 28/44/1 33/45/1 2/2/1 1/1/1 
f 34/46/1 39/47/1 4/4/1 3/3/1 
s 4
f 40/48/13 36/49/14 27/50/12 
f 26/51/11 31/52/15 25/53/9 
s 8
f 32/54/3 31/55/3 10/10/3 9/9/3 
f 36/56/3 35/57/3 12/12/3 11/11/3 
s 32
f 38/58/5 37/59/5 18/18/5 17/17/5 
f 30/60/5 29/61/5 20/20/5 19/19/5 
s 2
f 29/62/1 28/44/1 1/1/1 20/25/1 
f 39/47/1 38/63/1 17/26/1 4/4/1 
f 35/64/1 34/46/1 3/3/1 12/27/1 
f 33/45/1 32/65/1 9/28/1 2/2/1 
s 4
f 18/18/8 37/59/16 40/66/13 
f 25/29/9 30/60/17 19/19/7 
f 10/10/18 31/55/15 26/30/11 
f 27/31/12 36/56/14 11/11/10 
s off
f 33/45/19 28/44/19 13/67/19 16/68/19 
f 28/44/20 30/62/20 14/69/20 13/67/20 
f 30/70/21 31/71/21 15/72/21 14/73/21 
f 31/65/22 33/45/22 16/68/22 15/74/22 
f 39/47/1 34/46/1 21/75/1 24/76/1 
f 34/46/23 36/64/23 22/77/23 21/75/23 
f 36/78/24 37/79/24 23/80/24 22/81/24 
f 37/63/25 39/47/25 24/76/25 23/82/25 
s 8
f 41/83/4 42/84/26 43/85/26 44/86/4 
f 42/84/26 45/87/27 46/88/28 43/85/26 
f 45/89/27 47/90/29 48/91/29 46/92/28 
f 47/90/29 49/93/30 50/94/31 48/91/29 
f 49/95/30 51/96/32 52/97/32 50/98/31 
f 51/99/32 53/100/33 54/101/33 52/102/32 
f 53/100/33 55/103/34 56/104/34 54/101/33 
f 55/105/34 41/106/4 44/107/4 56/108/34 
s 1
f 53/109/35 51/110/36 49/111/35 41/112/35 
f 49/111/35 47/113/36 45/114/35 41/112/35 
f 45/114/35 42/115/35 41/112/35 
f 55/116/35 53/109/35 41/112/35 
s 8
f 57/117/4 58/118/26 59/119/26 60/120/4 
f 58/118/26 61/121/27 62/122/28 59/119/26 
f 61/123/27 63/124/29 64/125/29 62/126/28 
f 63/124/29 65/127/30 66/128/31 64/125/29 
f 65/129/30 67/130/32 68/131/32 66/132/31 
f 67/133/32 69/134/33 70/135/33 68/136/32 
f 69/134/33 71/137/34 72/138/34 70/135/33 
f 71/139/34 57/140/4 60/141/4 72/142/34 
s 1
f 69/143/35 67/144/36 65/145/35 57/146/35 
f 65/145/35 63/147/36 61/148/35 57/146/35 
f 61/148/35 58/149/35 57/146/35 
f 71/150/35 69/143/35 57/146/35 
s 8
f 73/151/4 74/152/26 75/153/26 76/154/4 
f 74/152/26 77/155/27 78/156/27 75/153/26 
f 77/157/27 79/158/29 80/159/29 78/160/27 
f 79/158/29 81/161/30 82/162/31 80/159/29 
f 81/163/30 83/164/32 84/165/32 82/166/31 
f 83/167/32 85/168/33 86/169/33 84/170/32 
f 85/168/33 87/171/34 88/172/34 86/169/33 
f 87/173/34 73/174/4 76/175/4 88/176/34 
s 1
f 85/177/35 83/178/36 81/179/36 73/180/35 
f 81/179/36 79/181/36 77/182/35 73/180/35 
f 77/182/35 74/183/36 73/180/35 
f 87/184/35 85/177/35 73/180/35 
s off
f 25/29/37 40/66/37 5/185/37 8/186/37 
f 40/48/38 27/50/38 6/187/38 5/188/38 
f 27/31/39 26/30/39 7/189/39 6/190/39 
f 26/51/40 25/53/40 8/191/40 7/192/40 
s 4
f 31/52/15 30/193/17 25/53/9 
f 40/48/13 37/194/16 36/49/14 
f 18/18/8 40/66/13 25/29/9 
f 11/11/10 10/10/18 26/30/11 
# 60 polygons - 22 triangles

