# 3ds Max Wavefront OBJ Exporter v0.97b - (c)2007 guruware
# File Created: 14.12.2011 14:23:55

mtllib Factory.mtl

#
# object Box05
#

v  0.3864 0.0000 -24.5635
v  0.3864 0.0000 -24.3135
v  -5.1236 0.0000 -24.3135
v  -5.1236 0.0000 -24.5635
v  -0.6132 2.9728 -18.5932
v  -0.6132 2.9728 -24.3135
v  -4.1239 2.9728 -24.3135
v  -4.1239 2.9728 -18.5932
v  0.6314 0.0000 -24.3135
v  -0.3682 2.4967 -24.3135
v  -0.3682 2.4967 -18.5932
v  0.6314 0.0000 -18.5932
v  -4.1239 2.4967 -24.5635
v  -0.6132 2.4967 -24.5635
v  -5.3686 0.0000 -24.3135
v  -4.3689 2.4967 -24.3135
v  -4.3689 2.4967 -24.5635
v  -5.3686 0.0000 -24.5635
v  0.6314 0.0000 -24.5635
v  -5.3686 0.0000 -18.5932
v  -5.1236 0.0000 -18.5932
v  -0.1887 2.7217 -18.5932
v  -0.1887 2.7217 -24.3135
v  -4.3689 2.7217 -24.5635
v  -4.5679 2.7217 -24.3135
v  -4.1239 2.7217 -24.5635
v  -0.6132 2.4967 -18.5932
v  0.3864 0.0000 -18.5932
v  -4.5679 2.7217 -18.5932
v  -4.3689 2.4967 -18.5932
v  -4.1239 2.4967 -18.5932
v  -0.3682 2.7217 -24.5635
v  -0.3682 2.4967 -24.5635
v  -0.6132 2.7217 -24.5635
v  -0.6132 2.5118 -24.3135
v  -4.1239 2.5118 -24.3135
v  -5.1236 -0.0151 -18.5780
v  0.3864 -0.0151 -18.5780
v  -0.6132 2.4968 -18.5780
v  -4.1239 2.4968 -18.5780
v  -5.1236 -0.0151 -18.6780
v  0.3864 -0.0151 -18.6780
v  -0.6132 2.4968 -18.6780
v  -4.1239 2.4968 -18.6780
# 44 vertices

vn 0.0000 -1.0000 -0.0000
vn 0.2639 0.9646 -0.0000
vn 0.2064 0.9223 -0.3268
vn -0.1989 0.9232 -0.3287
vn -0.2544 0.9671 -0.0000
vn 0.9284 0.3717 -0.0000
vn 0.9939 -0.0654 -0.0891
vn 0.9893 -0.1457 -0.0000
vn 0.0000 -0.0000 -1.0000
vn -0.9283 0.3717 0.0000
vn -0.9917 -0.0845 -0.0966
vn -0.9819 0.1893 0.0000
vn -0.9283 0.3717 -0.0000
vn 0.5090 0.8608 -0.0000
vn 0.5041 0.8524 -0.1392
vn -0.2885 0.8022 -0.5227
vn -0.4870 0.8615 -0.1441
vn 0.0000 0.7057 -0.7085
vn 0.0000 0.0000 1.0000
vn 0.0000 0.0000 -1.0000
vn 0.9085 -0.3107 -0.2796
vn 0.7628 -0.6085 -0.2188
vn 0.9819 0.1892 0.0000
vn -0.7490 -0.6626 -0.0000
vn -0.7300 -0.6458 -0.2238
vn -0.9853 -0.1709 -0.0000
vn 0.9284 0.3717 0.0000
vn 0.2991 0.8039 -0.5140
vn -0.4921 0.8705 -0.0000
vn 0.7818 -0.6236 -0.0000
vn -0.8937 -0.3335 -0.3001
vn 0.0000 -1.0000 -0.0026
vn -0.9288 -0.3707 -0.0005
vn 0.9287 -0.3708 -0.0005
vn 0.9291 0.3697 -0.0000
vn 0.0000 1.0000 -0.0000
vn -0.9291 0.3698 -0.0000
# 37 vertex normals

vt 0.0229 0.3253 0.0000
vt 0.0229 0.3121 0.0000
vt 0.3139 0.3121 0.0000
vt 0.3139 0.3253 0.0000
vt 0.0100 0.3721 0.0000
vt 0.3121 0.3721 0.0000
vt 0.3121 0.5575 0.0000
vt 0.0100 0.5575 0.0000
vt 0.3710 0.7041 0.0000
vt 0.3710 0.5576 0.0000
vt 0.6731 0.5576 0.0000
vt 0.6731 0.7041 0.0000
vt 0.3707 0.5214 0.0000
vt 0.4235 0.3748 0.0000
vt 0.6089 0.3748 0.0000
vt 0.6617 0.5214 0.0000
vt 0.3121 0.9679 0.0000
vt 0.3121 0.8213 0.0000
vt 0.3253 0.8213 0.0000
vt 0.3253 0.9679 0.0000
vt 0.0100 0.3253 0.0000
vt 0.0100 0.3121 0.0000
vt 0.3269 0.0100 0.0000
vt 0.3269 0.3121 0.0000
vt 0.3139 0.0100 0.0000
vt 0.0100 0.3497 0.0000
vt 0.3121 0.3497 0.0000
vt 0.3253 0.5704 0.0000
vt 0.3121 0.5809 0.0000
vt 0.3253 0.5575 0.0000
vt 0.0100 0.7851 0.0000
vt 0.0628 0.6386 0.0000
vt 0.0757 0.6386 0.0000
vt 0.0229 0.7851 0.0000
vt 0.2846 0.6267 0.0000
vt 0.2741 0.6386 0.0000
vt 0.2611 0.6386 0.0000
vt 0.2611 0.6134 0.0000
vt 0.3578 0.5214 0.0000
vt 0.4106 0.3748 0.0000
vt 0.6219 0.3629 0.0000
vt 0.6219 0.3748 0.0000
vt 0.6089 0.3629 0.0000
vt 0.0757 0.6134 0.0000
vt 0.3578 0.5457 0.0000
vt 0.3710 0.5457 0.0000
vt 0.3578 0.5576 0.0000
vt 0.4235 0.3629 0.0000
vt 0.0100 0.8095 0.0000
vt 0.3121 0.8095 0.0000
vt 0.0100 0.8213 0.0000
vt 0.0533 0.6267 0.0000
vt 0.3269 0.7851 0.0000
vt 0.3139 0.7851 0.0000
vt 0.4106 0.3629 0.0000
vt 0.6747 0.5214 0.0000
vt 0.4235 0.3497 0.0000
vt 0.6089 0.3497 0.0000
vt 0.3578 0.7041 0.0000
vt 0.0100 0.9679 0.0000
vt 0.0100 0.0100 0.0000
vt 0.0229 0.0100 0.0000
vt 0.3269 0.3253 0.0000
vt 0.3253 0.3591 0.0000
vt 0.3253 0.3721 0.0000
vt 0.0100 0.5809 0.0000
vt 0.6731 0.5457 0.0000
vt 0.3253 0.8095 0.0000
vt 0.9884 0.6931 0.0000
vt 0.6974 0.6931 0.0000
vt 0.7502 0.5457 0.0000
vt 0.9356 0.5457 0.0000
vt 0.3512 0.0100 0.0000
vt 0.6533 0.0100 0.0000
vt 0.6533 0.1954 0.0000
vt 0.3512 0.1954 0.0000
vt 0.6599 0.7285 0.0000
vt 0.6599 0.8759 0.0000
vt 0.3578 0.8759 0.0000
vt 0.3578 0.7293 0.0000
vt 0.6858 0.0100 0.0000
vt 0.9879 0.0108 0.0000
vt 0.9879 0.1573 0.0000
vt 0.6858 0.1573 0.0000
vt 0.9900 0.4970 0.0000
vt 0.6990 0.4970 0.0000
vt 0.7518 0.3497 0.0000
vt 0.9372 0.3497 0.0000
vt 0.6422 0.2332 0.0000
vt 0.3512 0.2332 0.0000
vt 0.3512 0.2279 0.0000
vt 0.6422 0.2279 0.0000
vt 0.1015 0.7367 0.0000
vt 0.2489 0.7367 0.0000
vt 0.2489 0.7420 0.0000
vt 0.1015 0.7420 0.0000
vt 0.3009 0.1140 0.0000
vt 0.3009 0.2994 0.0000
vt 0.2956 0.2994 0.0000
vt 0.2956 0.1140 0.0000
vt 0.2521 0.7851 0.0000
vt 0.1048 0.7851 0.0000
vt 0.1048 0.7798 0.0000
vt 0.2521 0.7798 0.0000
vt 0.7370 0.7285 0.0000
vt 0.9224 0.7285 0.0000
vt 0.9752 0.8759 0.0000
vt 0.6842 0.8759 0.0000
# 108 texture coords

g Box05
usemtl Material__14
s 2
f 1/1/1 2/2/1 3/3/1 4/4/1 
s 4
f 5/5/2 6/6/3 7/7/4 8/8/5 
s 16
f 9/9/6 10/10/7 11/11/8 12/12/6 
s 32
f 4/13/9 13/14/9 14/15/9 1/16/9 
s 64
f 15/17/10 16/18/11 17/19/12 18/20/13 
s 2
f 19/21/1 9/22/1 2/2/1 1/1/1 
f 20/23/1 15/24/1 3/3/1 21/25/1 
s 4
f 22/26/14 23/27/15 6/6/3 5/5/2 
f 24/28/16 25/29/17 7/7/4 26/30/18 
s 8
f 12/31/19 11/32/19 27/33/19 28/34/19 
f 29/35/19 30/36/19 31/37/19 8/38/19 
s 32
f 18/39/9 17/40/9 13/14/9 4/13/9 
f 32/41/20 33/42/9 14/15/9 34/43/20 
s 8
f 5/44/19 8/38/19 31/37/19 27/33/19 
s 16
f 32/45/21 23/46/22 10/10/7 33/47/23 
s 32
f 26/48/20 34/43/20 14/15/9 13/14/9 
s 64
f 29/49/24 25/50/25 16/18/11 30/51/26 
s 8
f 22/52/19 5/44/19 27/33/19 11/32/19 
f 20/53/19 21/54/19 31/37/19 30/36/19 
s 32
f 24/55/20 26/48/20 13/14/9 17/40/9 
f 19/56/9 1/16/9 14/15/9 33/42/9 
s 4
f 34/43/18 26/48/18 7/57/4 6/58/3 
s 16
f 19/59/27 33/47/23 10/10/7 9/9/6 
s 64
f 20/60/13 30/51/26 16/18/11 15/17/10 
s 2
f 12/61/1 28/62/1 2/2/1 9/22/1 
f 18/63/1 4/4/1 3/3/1 15/24/1 
s 4
f 32/64/28 34/65/18 6/6/3 23/27/15 
f 29/66/29 8/8/5 7/7/4 25/29/17 
s 16
f 22/67/30 11/11/8 10/10/7 23/46/22 
s 64
f 24/68/31 17/19/12 16/18/11 25/50/25 
s off
f 3/69/19 2/70/19 35/71/19 36/72/19 
s 1
f 35/73/32 27/74/32 31/75/32 36/76/32 
s off
f 35/77/33 2/78/33 28/79/33 27/80/33 
f 36/81/34 31/82/34 21/83/34 3/84/34 
f 37/85/19 38/86/19 39/87/19 40/88/19 
f 41/89/1 42/90/1 38/91/1 37/92/1 
f 42/93/35 43/94/35 39/95/35 38/96/35 
f 43/97/36 44/98/36 40/99/36 39/100/36 
f 44/101/37 41/102/37 37/103/37 40/104/37 
f 44/105/9 43/106/9 42/107/9 41/108/9 
# 40 polygons

