# 3ds Max Wavefront OBJ Exporter v0.97b - (c)2007 guruware
# File Created: 14.12.2011 14:27:28

mtllib Turret2.mtl

#
# object Cylinder03
#

v  9.8938 0.3734 -4.4260
v  9.8438 0.4600 -4.4260
v  9.8438 0.4600 -2.6110
v  9.8938 0.3734 -2.6110
v  9.7438 0.4600 -4.4260
v  9.7438 0.4600 -2.6110
v  9.6938 0.3734 -4.4260
v  9.6938 0.3734 -2.6110
v  9.7438 0.2868 -4.4260
v  9.7438 0.2868 -2.6110
v  9.8438 0.2868 -4.4260
v  9.8438 0.2868 -2.6110
v  10.9913 0.0121 -4.9968
v  10.7009 0.0121 -5.6977
v  10.5217 0.6400 -5.5185
v  10.7378 0.6400 -4.9968
v  10.0000 0.0121 -5.9881
v  10.0000 0.6400 -5.7346
v  9.2991 0.0121 -5.6977
v  9.4783 0.6400 -5.5185
v  9.0087 0.0121 -4.9968
v  9.2622 0.6400 -4.9968
v  9.2991 0.0121 -4.2959
v  9.4783 0.6400 -4.4751
v  10.0000 0.0121 -4.0056
v  10.0000 0.6400 -4.2590
v  10.7009 0.0121 -4.2959
v  10.5217 0.6400 -4.4751
v  10.2939 0.8400 -5.2907
v  10.0000 0.8400 -5.4125
v  9.7061 0.8400 -5.2907
v  10.2939 0.8400 -4.7029
v  9.5844 0.8400 -4.9968
v  9.7061 0.8400 -4.7029
v  10.0000 0.8400 -4.5812
v  10.4156 0.8400 -4.9968
v  10.3021 0.3734 -4.4260
v  10.2521 0.4600 -4.4260
v  10.2521 0.4600 -2.6110
v  10.3021 0.3734 -2.6110
v  10.1521 0.4600 -4.4260
v  10.1521 0.4600 -2.6110
v  10.1021 0.3734 -4.4260
v  10.1021 0.3734 -2.6110
v  10.1521 0.2868 -4.4260
v  10.1521 0.2868 -2.6110
v  10.2521 0.2868 -4.4260
v  10.2521 0.2868 -2.6110
# 48 vertices

vn 1.0000 0.0000 0.0000
vn 0.5000 0.8660 0.0000
vn -0.5000 0.8660 0.0000
vn -1.0000 0.0000 0.0000
vn -0.5000 -0.8660 -0.0000
vn 0.5000 -0.8660 -0.0000
vn 0.0000 -0.0000 1.0000
vn 0.9273 0.3743 0.0000
vn 0.6557 0.3743 -0.6557
vn 0.0000 0.3743 -0.9273
vn -0.6557 0.3743 -0.6557
vn -0.9273 0.3743 0.0000
vn -0.9273 0.3743 -0.0000
vn -0.6557 0.3743 0.6557
vn 0.0000 0.3743 0.9273
vn 0.6557 0.3743 0.6557
vn 0.0000 -1.0000 0.0000
vn -0.0000 -1.0000 0.0000
vn 0.0000 1.0000 0.0000
vn 0.0000 1.0000 -0.0000
vn -0.0000 1.0000 0.0000
vn 0.5153 0.8300 -0.2134
vn 0.2134 0.8300 -0.5153
vn -0.2134 0.8300 -0.5153
vn -0.5153 0.8300 -0.2134
vn -0.5153 0.8300 0.2134
vn -0.2134 0.8300 0.5153
vn 0.2134 0.8300 0.5153
vn 0.5153 0.8300 0.2134
# 29 vertex normals

vt 0.4316 0.6345 0.0000
vt 0.4316 0.6157 0.0000
vt 0.8262 0.6157 0.0000
vt 0.8262 0.6345 0.0000
vt 0.4316 0.8884 0.0000
vt 0.4316 0.8667 0.0000
vt 0.8262 0.8667 0.0000
vt 0.8262 0.8884 0.0000
vt 0.4316 0.7868 0.0000
vt 0.4316 0.7680 0.0000
vt 0.8262 0.7680 0.0000
vt 0.8262 0.7868 0.0000
vt 0.4316 0.7491 0.0000
vt 0.8262 0.7491 0.0000
vt 0.4316 0.9900 0.0000
vt 0.4316 0.9683 0.0000
vt 0.8262 0.9683 0.0000
vt 0.8262 0.9900 0.0000
vt 0.4316 0.6534 0.0000
vt 0.8262 0.6534 0.0000
vt 0.7488 0.0100 0.0000
vt 0.7706 0.0100 0.0000
vt 0.7814 0.0288 0.0000
vt 0.7488 0.0477 0.0000
vt 0.7706 0.0477 0.0000
vt 0.7379 0.0288 0.0000
vt 0.1733 0.9231 0.0000
vt 0.0100 0.8994 0.0000
vt 0.0517 0.7583 0.0000
vt 0.1733 0.7759 0.0000
vt 0.4316 0.3907 0.0000
vt 0.5840 0.3907 0.0000
vt 0.5840 0.5272 0.0000
vt 0.4706 0.5272 0.0000
vt 0.7364 0.3907 0.0000
vt 0.6974 0.5272 0.0000
vt 0.4316 0.2204 0.0000
vt 0.5949 0.1968 0.0000
vt 0.5949 0.3440 0.0000
vt 0.4734 0.3616 0.0000
vt 0.7161 0.2204 0.0000
vt 0.6851 0.3616 0.0000
vt 0.7161 0.1517 0.0000
vt 0.5528 0.1750 0.0000
vt 0.5532 0.0278 0.0000
vt 0.6747 0.0105 0.0000
vt 0.4316 0.1511 0.0000
vt 0.4629 0.0100 0.0000
vt 0.2945 0.8994 0.0000
vt 0.2635 0.7583 0.0000
vt 0.4098 0.1294 0.0000
vt 0.4082 0.2943 0.0000
vt 0.2904 0.4098 0.0000
vt 0.1294 0.0100 0.0000
vt 0.1255 0.4082 0.0000
vt 0.0100 0.2904 0.0000
vt 0.0116 0.1255 0.0000
vt 0.2943 0.0116 0.0000
vt 0.0756 0.5450 0.0000
vt 0.1250 0.4966 0.0000
vt 0.1942 0.4973 0.0000
vt 0.1234 0.6636 0.0000
vt 0.2426 0.5467 0.0000
vt 0.2419 0.6158 0.0000
vt 0.1926 0.6642 0.0000
vt 0.0750 0.6142 0.0000
vt 0.4316 0.7012 0.0000
vt 0.4316 0.6824 0.0000
vt 0.8262 0.6824 0.0000
vt 0.8262 0.7012 0.0000
vt 0.4316 0.8376 0.0000
vt 0.4316 0.8159 0.0000
vt 0.8262 0.8159 0.0000
vt 0.8262 0.8376 0.0000
vt 0.4316 0.5866 0.0000
vt 0.4316 0.5678 0.0000
vt 0.8262 0.5678 0.0000
vt 0.8262 0.5866 0.0000
vt 0.4316 0.5490 0.0000
vt 0.8262 0.5490 0.0000
vt 0.4316 0.9392 0.0000
vt 0.4316 0.9175 0.0000
vt 0.8262 0.9175 0.0000
vt 0.8262 0.9392 0.0000
vt 0.4316 0.7201 0.0000
vt 0.8262 0.7201 0.0000
vt 0.3475 0.4316 0.0000
vt 0.3693 0.4316 0.0000
vt 0.3801 0.4505 0.0000
vt 0.3475 0.4693 0.0000
vt 0.3693 0.4693 0.0000
vt 0.3366 0.4505 0.0000
vt 0.0100 0.6403 0.0000
vt 0.0112 0.5176 0.0000
vt 0.0989 0.4316 0.0000
vt 0.2216 0.4328 0.0000
vt 0.3076 0.5205 0.0000
vt 0.3064 0.6433 0.0000
vt 0.2187 0.7292 0.0000
vt 0.0960 0.7280 0.0000
# 100 texture coords

g Cylinder03
usemtl Material__5
s 8
f 1/1/1 2/2/2 3/3/2 4/4/1 
f 2/5/2 5/6/3 6/7/3 3/8/2 
f 5/9/3 7/10/4 8/11/4 6/12/3 
f 7/10/4 9/13/5 10/14/5 8/11/4 
f 9/15/5 11/16/6 12/17/6 10/18/5 
f 11/19/6 1/1/1 4/4/1 12/20/6 
s 1
f 3/21/7 6/22/7 8/23/7 12/24/7 
f 8/23/7 10/25/7 12/24/7 
f 4/26/7 3/21/7 12/24/7 
s 8
f 13/27/8 14/28/9 15/29/9 16/30/8 
f 14/31/9 17/32/10 18/33/10 15/34/9 
f 17/32/10 19/35/11 20/36/11 18/33/10 
f 19/37/11 21/38/12 22/39/13 20/40/11 
f 21/38/12 23/41/14 24/42/14 22/39/13 
f 23/43/14 25/44/15 26/45/15 24/46/14 
f 25/44/15 27/47/16 28/48/16 26/45/15 
f 27/49/16 13/27/8 16/30/8 28/50/16 
s 1
f 25/51/17 23/52/18 21/53/17 13/54/18 
f 21/53/17 19/55/17 17/56/17 13/54/18 
f 17/56/17 14/57/18 13/54/18 
f 27/58/17 25/51/17 13/54/18 
f 29/59/19 30/60/20 31/61/21 32/62/19 
f 31/61/21 33/63/21 34/64/21 32/62/19 
f 34/64/21 35/65/20 32/62/19 
f 36/66/19 29/59/19 32/62/19 
s 8
f 37/67/1 38/68/2 39/69/2 40/70/1 
f 38/71/2 41/72/3 42/73/3 39/74/2 
f 41/75/3 43/76/4 44/77/4 42/78/3 
f 43/76/4 45/79/5 46/80/5 44/77/4 
f 45/81/5 47/82/6 48/83/6 46/84/5 
f 47/85/6 37/67/1 40/70/1 48/86/6 
s 1
f 39/87/7 42/88/7 44/89/7 48/90/7 
f 44/89/7 46/91/7 48/90/7 
f 40/92/7 39/87/7 48/90/7 
s off
f 16/93/22 15/94/22 29/59/22 36/66/22 
f 15/94/23 18/95/23 30/60/23 29/59/23 
f 18/95/24 20/96/24 31/61/24 30/60/24 
f 20/96/25 22/97/25 33/63/25 31/61/25 
f 22/97/26 24/98/26 34/64/26 33/63/26 
f 24/98/27 26/99/27 35/65/27 34/64/27 
f 26/99/28 28/100/28 32/62/28 35/65/28 
f 28/100/29 16/93/29 36/66/29 32/62/29 
# 34 polygons - 8 triangles

